<svg viewBox="0 0 300 300" width="300" height="300" xmlns="http://www.w3.org/2000/svg"><path d="M0 63.31c.516-1.037.984-6.683 1.306-8.303C7.077 25.927 32.648 2.788 62.386.947 71.615.373 81.552.688 90.86.687l59.555.207q29.22-.34 58.442-.203L225.456.69c4.391 0 9.714-.034 14.094.377a63.8 63.8 0 0 1 22.16 6.383 68.3 68.3 0 0 1 35.385 41.376c.344 1.099.596 2.594.967 3.586 1.108 2.974.864 7.542 1.939 10.328v174.64c-.662 1.777-.875 5.187-1.206 7.025-2.14 11.9-7.902 22.604-15.515 31.885-.453.551-.135 2.108-.52 2.819-.509.104-2.482.45-2.753.678-3.742 3.15-7.2 6.224-11.373 8.877a66.8 66.8 0 0 1-13.501 6.668A64.7 64.7 0 0 1 238.7 299c-4.922.476-10.677.401-15.62.403l-20.031.001-23.947-.011c-6.222-.008-13.243.032-19.429-.415-.427-.035-.734-.02-1.109-.224.037-.355.046-.243-.013-.595-.5-.275-1.358-.239-1.966-.265l-1.6.076c-3.98-.014-8.556-.195-12.45-.139-.492.048-1.197.042-1.545.331.123.167.19.283.275.478-.36.357-1.162.385-1.714.467-3.793-.062-8.52.277-12.582.284l-42.211.01c-6.992 0-17.993.314-24.667-.515a68.4 68.4 0 0 1-19.171-5.165 68.36 68.36 0 0 1-38.005-42.333 52.6 52.6 0 0 1-2.063-9.573c-.132-1.12-.411-3.887-.851-4.851z"/><path d="M0 63.31c.516-1.037.984-6.683 1.306-8.303C7.077 25.927 32.648 2.788 62.386.947 71.615.373 81.552.688 90.86.687l59.555.207q29.22-.34 58.442-.203L225.456.69c4.391 0 9.714-.034 14.094.377a63.8 63.8 0 0 1 22.16 6.383 68.3 68.3 0 0 1 35.385 41.376c.344 1.099.596 2.594.967 3.586 1.108 2.974.864 7.542 1.939 10.328v174.64c-.662 1.777-.875 5.187-1.206 7.025-2.14 11.9-7.902 22.604-15.515 31.885-.453.551-.135 2.108-.52 2.819-.509.104-2.482.45-2.753.678-3.742 3.15-7.2 6.224-11.373 8.877a66.8 66.8 0 0 1-13.501 6.668A64.7 64.7 0 0 1 238.7 299c-4.922.476-10.677.401-15.62.403l-20.031.001-23.947-.011c-6.222-.008-13.243.032-19.429-.415-.427-.035-.734-.02-1.109-.224.037-.355.046-.243-.013-.595-.5-.275-1.358-.239-1.966-.265 4.502-.303 10.373-.655 14.769-1.3a148.36 148.36 0 0 0 78.221-37.036A147.5 147.5 0 0 0 297.892 156.6a147.68 147.68 0 0 0-39.407-107.312A147.56 147.56 0 0 0 155.266 2.123 147.6 147.6 0 0 0 49.151 41.682 147.7 147.7 0 0 0 2.071 145.63a147.63 147.63 0 0 0 39.276 104.918 147.55 147.55 0 0 0 77.09 44.088c8.1 1.768 15.786 2.91 24.097 3.196-.492.048-1.197.042-1.545.331.123.167.19.283.275.478-.36.357-1.162.385-1.714.467-3.793-.062-8.52.277-12.582.284l-42.211.01c-6.992 0-17.993.314-24.667-.515a68.4 68.4 0 0 1-19.171-5.165 68.36 68.36 0 0 1-38.005-42.333 52.6 52.6 0 0 1-2.064-9.573c-.13-1.12-.41-3.887-.85-4.851z" fill="#fefefe"/><path d="M146.064 6.76c79.078-2.184 144.968 60.12 147.208 139.197 2.238 79.075-60.022 145.01-139.096 147.302-79.15 2.295-145.162-60.038-147.403-139.19C4.532 74.916 66.91 8.948 146.064 6.761" fill="#fefefe"/><path d="M145.608 10.014c77.316-2.441 141.975 58.255 144.42 135.572 2.447 77.316-58.243 141.979-135.56 144.431-77.325 2.454-141.996-58.246-144.443-135.571S68.282 12.455 145.608 10.014"/><path d="M151.743 76.233q.195-.024.391-.033c4.26-.168 18.9.59 21.65 3.287 1.871 1.834 1.583 4.569 1.531 6.95-4.413-1.939-9.821-1.179-12.479 3.15.724 2.245 1.824 4.301 2.852 6.425 1.845 3.807 3.868 7.532 5.727 11.34.87 1.781 1.854 3.391 2.592 5.258 1.023-1.093 3.777-3.071 5.08-4.048a910 910 0 0 0 8.554-6.447 3100 3100 0 0 1 32.567-24.973c.945.978 2.059 1.917 3.044 2.94a109 109 0 0 1 7.417 8.659c1.875 2.43 3.533 5.193 5.248 7.415l.096.122c-2.937 3.064-5.895 6.419-8.792 9.557l-19.068 20.555-51.95 55.746c-1.902 2.037-3.766 4.13-5.728 6.104-2.477-2.325-5.983-6.303-8.46-8.923l-18.56-19.819-58.742-63.192c4.123-6.563 9.955-13.9 15.752-19.054 8.933 6.399 18.091 13.78 26.894 20.504l11.566 8.812c2.598 1.965 5.24 3.826 7.708 5.954l.194-.021c.384-1.093 1.552-3.074 2.13-4.177l3.456-6.766 6.415-12.671c1.628-3.19 3.283-6.768 5.52-9.565 1.897-2.373 4.55-2.843 7.395-3.09" fill="#fefefe"/><path d="m148.501 111.626 3.698.008c-.04 2.731-.016 5.505-.018 8.239 1.244.049 2.533.055 3.78.078v4.118c1.404.003 2.91-.022 4.29.194l.038-4.345 3.916.014-.022 4.14h4.13c.157-1.544.156-2.667.154-4.207 1.083.105 2.795.05 3.928.048-.025-.904.019-1.842.045-2.75 1.197-.072 2.316-.112 3.479-.417l.007 7.042-3.926.008-.016 4.04c-2.195-.192-5.652-.077-7.945-.059q-.02 4.038.006 8.075c-1.188-.068-2.578-.032-3.784-.029l-.009-8.06c-2.689.07-5.153-.089-7.911.121l.019-4.075c-1.386-.045-2.838-.015-4.228-.008-.008.945-.16 3.71.295 4.352 1.308.049 2.471.037 3.775.014l-.024 3.991c1.286.069 2.479.113 3.763.034-.093 3.64.018 7.806 0 11.503l-3.608.028.037-3.963a1105 1105 0 0 0-11.951-.021c.024-1.198.011-2.434.014-3.635q3.97.053 7.938-.003l.003-4.12a261 261 0 0 0-8.17-.015c-.02 1.283-.007 2.592-.01 3.877-2.91-.17-5.022-.115-7.91-.014.073-1.164.108-2.491.036-3.653 1.169.09 2.847.05 4.053.058l.008-4.154c1.127.13 2.855.107 4.031.124l.034-4.135c1.459.06 2.567.054 4.027-.003l-.022-4.204c1.028.102 2.824.056 3.91.06-.003-2.818.202-5.385.14-8.296m-12.114 28.262h3.81l-.013 3.995c1.285.048 2.54.088 3.822.2.004 2.6.152 5.138.148 7.754l4.349.047.028-7.87q1.595.036 3.19-.017l.337.028c.25.726.125 6.71.15 7.865 1.34.079 2.434.134 3.779.118-.022 1.314-.038 2.529.007 3.846l4.113.004.017 7.77-7.938.013c-.002 2.488-.068 5.273.008 7.737-1.334-.015-2.74-.057-4.066.012-.006 2.253-.142 6.66.215 8.705-.865-1.119-2.888-3.542-3.996-4.42-.034-2.856.023-5.258-.065-8.179-1.364-.017-2.73-.148-4.077-.136-.018 1.561-.076 2.733.19 4.295-2.183-3.028-5.682-6.018-8.07-8.898l-.05-2.965c1.304.008 2.66.034 3.959.01l-.005 3.953 4.219.015c.003-.872.07-3.336-.139-4.08 1 .186 2.642.127 3.704.119.001 1.378.106 2.606.127 3.928l4.231.02c.018-.888.142-3.157.07-3.947l3.904-.006.009-4.242c-1.376-.009-2.85-.045-4.217.004l-.014 4.052c-.94-.073-2.917-.105-3.83.01l.008-4.062c-1.327-.007-2.699-.035-4.02.017q.22-3.888.153-7.782c-1.378-.03-2.836-.145-4.18-.152l-.025 4.01c-1.555-.278-2.39-.185-3.963.015.102-2.17.166-5.632.062-7.815l4.048.162z"/><path d="M115.134 109.205c.46.238 3.715 2.836 4.6 3.442-.053.92-.047 1.998-.064 2.932.923-.037 1.733-.061 2.652.106 2.911.532 5.01 3.114 7.37.029.788-.024 1.621-.01 2.413-.012-.06 2.751-.026 5.611-.015 8.37l4.143.008-.012 3.75c-1.687-.203-6.267-.074-8.183-.059-.05 3.957-.008 7.998-.007 11.962l-7.753.012c.021-1.247.042-2.401-.013-3.65 1.227.066 2.837.012 4.091.006l-.002-3.57c-.03-.39.025-.21-.231-.52-1.04-.39-2.977-.168-4.15-.092l.014 3.974c-1.157-.143-3.035-.08-4.25-.075l-.006 4.059 4.276.006c-.015 1.3-.025 2.513.022 3.816a465 465 0 0 1-5.663-.046c-1.721-1.971-5.521-6.314-7.505-7.807 1.361.302 2.36.296 3.74.32l.007-4.01c1.255.135 3.302.073 4.62.072l.017-15.05c.002-2.074.112-6.087-.111-7.973"/><path d="M123.968 119.83c1.448-.037 2.951-.005 4.404.006-.05 1.34-.014 2.88-.013 4.236l-4.013.005c.017.863.137 3.326-.173 4.042-1.406.04-2.921.013-4.336.014l.003-4.342 4.17.006c-.08-1.15-.037-2.782-.042-3.968" fill="#fefefe"/><path d="M200.811 97.903c4.425-.163 9.475-.045 13.948-.039.145 4.274.186 10.776.003 15.009-.641.915-1.232 1.417-2.045 2.18-4.287-.153-9.351.015-13.749-.018-.297-4.457-.212-11.593-.108-16.162.691-.538 1.096-.797 1.951-.97m-114.842-.077c4.167.732 9.832-.214 14.144.19 2.423.226 1.727 4.978 1.726 6.924l.002 10.116q-4.125-.01-8.248.022c-1.63.006-3.258.073-4.878-.113-1.494-.172-1.84-.806-2.709-1.98-.218-4.73-.075-10.364-.037-15.16"/><path d="M80.642 82.997c1.176.387 8.793 6.604 10.627 7.844-3.073-.522-6.85-.206-10.053-.158-.063 1.83.058 16.86-.11 17.148-.627-.855-1.697-1.79-2.438-2.585-2.306-2.476-4.593-4.97-6.886-7.458-.555-.601-1.088-1.138-1.549-1.82.314-.665 1.61-2.257 2.093-2.907 2.605-3.504 5.452-6.773 8.316-10.064m139.03.036.24.03c1.638 1.24 9.746 11.148 10.448 12.894-.684 1.033-3.025 3.419-4.014 4.478l-6.662 7.236-.076.091-.16-.026c-.017-.78.031-1.573.062-2.354.192-4.904-.031-9.803-.065-14.712-2.736-.013-7.974-.247-10.465.265 2.948-1.63 7.912-5.668 10.692-7.902m-33.953 45.013c1.503.329 13.422.283 15.228-.038-1.463 1.173-2.57 2.46-3.701 3.937l-2.99.002a50 50 0 0 0-.148 3.481c-1.781 1.576-2.65 2.52-4.153 4.308l-4.561.01-.046 2.82.05 1.125q-4.596 0-9.189.178c.174-2.68.16-5.09.152-7.767 4.023.212 9.7.037 13.855.013l.02-4.16-4.504-.031zm8.331-25.379c.319.561.191 14.956.194 16.987 5.096-.017 9.26.283 14.498-.022-1.092.928-2.918 2.957-3.977 4.074-1.345-.136-3.74-.072-5.13-.073l-9.476.03c.19-1.624.108-6.744.09-8.55-.027-2.373.15-7.284-.098-9.48 1.254-.843 2.828-1.916 3.898-2.966M142.21 91.64c1.595.136 4.323.048 6.003.036-.19 1.555-.078 6.228-.078 8.007 1.263.022 2.655-.07 3.926-.128-.042 2.546-.015 5.165-.019 7.718-1.257.002-2.325.007-3.574.105.048-.762.042-1.614.054-2.385v-1.689c-3.867-.052-8.327-.123-12.168.023.561-1.277 1.239-2.323 1.732-3.697l2.34.104c-.083-2.054-.125-3.649.754-5.564.362-.788.799-1.703 1.03-2.53m-35.802 11.004c1.285.624 2.56 2.148 3.907 2.833.096 4.07.005 8.158.037 12.226.015 1.856-.072 4.118.053 5.943l-14.661-.019c-1.216-1.367-2.517-2.944-3.97-4.012 4.875.324 9.802.176 14.682.046l-.002-10.437c.006-2.088.08-4.544-.046-6.58m78.848 6.616c.346.357.22 16.803.22 18.577-1.642-.146-3.786-.079-5.461-.07a70 70 0 0 0-.04 4.162l-7.422.039-.182-.053c-.239-.49-.154-3.101-.157-3.823 1.325.124 2.829.088 4.17.09-.174-1.51-.152-2.591-.138-4.102l4.649-.003-.004-11.457c1.454-.725 3.218-2.219 4.365-3.36m-60.912 34.637c1.076.201 2.567.067 3.696.007q-.04 4.007.013 8.015c1.302.067 2.734-.016 4.047-.063-.073 2.549.01 5.177-.06 7.77-1.407.115-1.998.28-3.084-.556-1.54-1.54-2.944-2.953-4.393-4.574-.2-1.127-.213-1.692-.239-2.845-.904.03-1.727-.119-2.623-.239-.444-.356-.9-.82-1.312-1.22q-.06-1.192-.093-2.385l4.054.007zm26.678-63.136c.482-.07.47-.09.938.009.35.807.231 5.734.228 6.942l3.76.027.02 3.696-6.444.04c-.365.037-.532.092-.873-.03-.407-.632-.132-2.985-.125-3.992-1.404-.025-2.81-.068-4.213-.006a18.5 18.5 0 0 0 2.143-3.855c.75.03 1.181.125 1.905.268-.002-1.048.079-1.587.223-2.622.865-.2 1.562-.336 2.438-.477m9.27 18.879c.857.126 1.627.016 2.486-.065.968 2.256 2.653 5.768 3.945 7.822-1.103-.115-1.544-.131-2.65-.078-.06 1.427.287 2.909-.27 3.944-.573.324-.614.199-1.388.188l-2.158.014-.003-4.209q-1.98.022-3.958.109.044-1.894.035-3.79l3.93-.002zm-19.864 11.975c1.192.083 2.54.15 3.725.05-.107 2.948-.093 5.102-.009 8.04-1.282-.033-2.646-.01-3.935-.011-.027 1.339-.012 2.72-.015 4.063-.5.079-3.145.037-3.805.038-.038-2.68-.006-5.428-.006-8.113l4.06.016a408 408 0 0 1-.015-4.083m27.915 40.344c.908.124 2.73.095 3.643-.017-.01 1.383 0 2.558.073 3.94 1.396.02 1.901-.014 3.26-.266a37 37 0 0 0-3.855 3.935c-.83.001-2.597-.032-3.337.233l-.112.297-.015 3.533-3.586.013.066-7.77 3.83-.003zm-3.907-8.012c3.466.236 8.1.099 11.628.081a72 72 0 0 1-.044 3.631c-2.249-.009-9.819-.168-11.714.117q.035-1.915.13-3.829m3.874-11.812c.978.15 2.686.089 3.689.039l-.006 7.561-4.122-.004-3.56.001c.065-1.17.176-2.478.08-3.632 1.161.062 2.742.007 3.934.001zm-8.027 31.625 3.93.008-.035 3.6c-.748.72-3.404 3.77-4.107 3.94l-3.77.076.032-3.605c1.27.05 2.625.032 3.92.069zm4.096-52.133c1.006.15 2.618.138 3.63.029q-.049 4.081.15 8.156l-3.84.006c.154-1.959.24-6.296.06-8.19m-61.99 16.542c2.378.092 5.547.119 7.913.02-.011 1.244.003 2.508.006 3.755-1.676.002-6.216.42-7.26-.663-.835-.864-.677-1.995-.66-3.112m53.93 19.778c2.54.069 5.335.01 7.894.01-.034 1.163-.106 2.358-.16 3.524-2.575-.011-5.194-.066-7.755.201q.047-1.867.02-3.735m-.021-67.308c1.737.221 7.018-.119 7.865 1.36-.16.525-.11.36-.619.769-2.44.858-4.68.738-7.231.74.019-.941-.005-1.925-.015-2.87m-3.962 91.019c1.129.055 2.488.028 3.635.035.012 1.378 0 2.703.15 4.077l-3.775.024c.028-1.359-.002-2.771-.01-4.136m-15.989-15.936c1.184.105 2.667.064 3.864.003-.015.899-.116 3.205.1 3.965q-1.986-.044-3.972-.02zm19.96-44.115c1.2.055 2.603.03 3.819.039l-.008 3.804-3.835.005c.05-1.238.024-2.6.024-3.848m-24.025.016c.915.183 2.963.1 3.927.062l.02 3.78c-1.264.004-2.551-.02-3.817-.03-.11-1.31.022-2.48-.13-3.812m12.094-4.038c.997.113 2.75.052 3.807.046-.068 1.032-.077 2.726.055 3.726-1.406-.07-2.544.018-3.942.15.014-1.283.003-2.649.08-3.922m-16.053 32.278c1.206.045 2.544.025 3.76.034a95 95 0 0 0-.016 3.608l-.07.08c-.495.198-2.98.13-3.67.13a125 125 0 0 0-.004-3.852m8.134-32.223 3.737.018c.007 1.188.045 2.522-.02 3.696-1.273-.058-2.652-.024-3.935-.017zm23.812 32.251c.88.166 2.808.026 3.772-.012l.009 3.852c-1.24-.067-2.54-.035-3.785-.026zm-7.931-32.322c.838.121 2.85.076 3.777.08-.072 1.331-.06 2.321-.018 3.659l-3.72.162zm.014-11.929 3.77.022a13.7 13.7 0 0 0-.016 3.602c-.328.067-3.164.092-3.762.111q.023-1.867.008-3.736m23.863 52.17 3.788.038c-.002 1.144-.014 2.144-.407 3.228-1.18.542-2.06.422-3.357.407zm-40.058-44.129c.223.3.071 3.047.064 3.65-.674-.072-.88-.047-1.566.01l-.213-.058c-.05-.457 1.403-2.998 1.715-3.603"/><path d="M132.182 171.372c3.632 3.97 7.245 8.12 10.852 12.122 1.58 1.752 6.116 6.62 7.186 8.339 2.144-2.574 4.434-4.98 6.67-7.474a761 761 0 0 1 11.714-12.955c2.787 4.295 6.457 9.245 9.442 13.472l17.371 24.627 9.537 13.644c1.586 2.278 4.21 6.255 6.022 8.227-3.097 2.055-5.809 4.069-9.049 6.058-6.198 3.806-11.653 6.123-18.425 8.527a93.7 93.7 0 0 1-18.225 4.484 100.77 100.77 0 0 1-75.437-19.067c1.16-1.26 3.896-5.35 4.991-6.906l9.61-13.673 21.617-30.857c1.996-2.855 4.184-5.728 6.124-8.568" fill="#fefefe"/><path d="M180.89 202.468c-.013-.917-.226-3.428.522-4.002 2.083.433 9.926 12.548 11.326 15.108.29.53.186 6.919.185 8.033l3.937.018a72 72 0 0 0-.025 3.511l-8.027.013q-.04 3.758.013 7.517c-1.056-.047-2.667-.072-3.684.058-.142-2.357-.076-5.18-.076-7.575l-4.315-.001c.001 1.219-.03 2.458.123 3.664l-7.72.014.001-7.478h-3.672l-.048 3.79c-.607-.014-1.472-.091-2.014.102l-.097.322c-.009 1.105-.025 2.18.27 3.247-1.196.001-2.658-.043-3.82.11v-3.773l-4.146.003c-.047 1.332-.063 2.354-.003 3.682-1.184-.022-2.428 0-3.617.001l.018-3.674-4.024-.007c.055-1.112.026-2.445.03-3.573 1.215.067 2.759.015 3.998.006l-.02-3.908 3.549.01c-.022 1.283.074 2.613.146 3.9 2.575.077 5.597.036 8.156-.03-.007-1.28.01-2.604-.095-3.877l5.392.003-.011-4q-2.739.01-5.473.05c.075-1.119.236-2.55.078-3.63 1.652.083 3.725.042 5.408.049l-.016-4.17c-2.111-.13-3.465-.151-5.577.002-.045 1.319-.101 2.5-.016 3.82-1.228-.05-2.54-.017-3.775-.008l.01-7.352 4.787.02q.167-1.946.566-3.861l1.583-.045 2.113-.003c-.025 1.403.045 2.509.175 3.9z"/><path d="m176.829 209.79 12.27-.029c.047 3.923.008 7.92.006 11.85L177 221.603c-.07-4.034-.182-7.751-.17-11.813" fill="#fefefe"/><path d="M180.911 213.993q1.95.04 3.898-.004c-.04 1.088-.095 2.585.047 3.633-1.232-.192-2.71-.219-3.958-.144zm-20.944-26.85c.844.104 2.742.04 3.663.035l-.001 3.677 3.861.02a96 96 0 0 0-.173 3.618c-1.195.046-2.462.032-3.663.038l-.03 3.785c-1.286-.032-2.646.005-3.938.018-.07 1.329-.13 2.48-.102 3.816l-3.881.01a74 74 0 0 0 .007 3.828c-1.376-.153-2.153-.276-3.52.114l-.07-3.956-4.306.004c-.065 2.609-.023 5.33-.02 7.947 2.303.111 5.606.085 7.916.016-.035 1.163-.01 2.408-.009 3.578-1.242-.046-2.663-.003-3.92.008q-.038 3.84.018 7.678a71 71 0 0 0-7.65.144c.043-1.286.017-2.57 0-3.855l4.089.013-.012-4.124c-1.383-.03-2.844.087-4.23.167l-.002 3.799a31 31 0 0 0-3.687.03c.021-1.257-.007-2.585-.012-3.848l-3.91-.009-.012-3.923c-.76-.01-3.528-.128-4.112.154l-.075.28a54 54 0 0 0 .024 3.504 52 52 0 0 0-3.573.016c.052-1.211.002-2.714-.006-3.948l-8.041.002-.01-3.576c3.565.169 8.274.03 11.893.015.038-2.212.11-5.534-.016-7.694 1.101.075 2.652.037 3.774.014l.003 3.92 3.963-.005v7.755l3.963.004q.046-4.035.01-8.07c-1.186 0-2.563-.039-3.721.12l-.01-7.587a28 28 0 0 1 3.366.142c.163 1.399.184 2.28.19 3.699 1.38.057 2.886-.002 4.276-.03-.033-1.157-.11-1.888-.27-3.04.852 1.469 1.108 1.713 2.428 2.73.737-.886 1-1.35 1.584-2.354-.134.907-.198 1.753-.271 2.666 1.551.051 2.718.058 4.277.006l-.01-3.714c1.255.041 2.685.006 3.953.005zm-31.325 38.102c.998.079 2.571.038 3.614.042-.158 1.087-.07 2.804 0 3.894a46 46 0 0 0 3.978-.204l.002 3.955 4.206.009c-.021-1.24.002-2.542.004-3.787 1.091.078 2.318.046 3.41-.006a30 30 0 0 0 .163 3.762q2.038 0 4.075.082l.01-4.169c-1.231-.006-2.746-.06-3.943.113a81 81 0 0 0 0-3.653l7.626-.006c-.064 3.825-.167 7.43-.136 11.273-1.264-.127-2.565-.08-3.838-.066a274 274 0 0 0-.01 3.802c-.875-.024-1.728.014-2.6.045-.28.012-.395-.007-.674-.034-.589-.634-.366-2.859-.35-3.795-1.27-.018-2.695-.111-3.978-.166l-.013 4.284 3.663.04v3.53c-1.153-.043-2.489-.008-3.655-.005-.015.83.01 1.652.027 2.483-2.957-.552-9.042-.965-11.355-2.11l.096-.103c1.168-.003 2.283.108 3.444.206.046-1.28.141-2.792.048-4.05 1.157.072 2.734.03 3.923.035l.013-4.228-3.98.167c.14-1.117.092-2.756.092-3.92-1.136-.03-2.682-.098-3.774.096.02-2.334.09-5.212-.088-7.516m-21.354-11.258c1.823.093 4.274.024 6.136.025l10.892-.012c-.228 4.298-.037 10.021-.056 14.416-.014 3.145-.166 8.93.09 11.842-6.067.181-9.25.62-14.686-2.067-1.317-.759-2.146-1.058-3.581-1.532 4.793.315 9.79.205 14.613.197l.019-19.352c-2.346-.107-14.32-.22-16.048.192.847-.874 2.095-2.614 2.621-3.709"/><path d="M104.739 221.578c3.62.172 7.904.053 11.582.034q-.023 5.543.022 11.084c-1.492-.133-10.134-.129-11.62.035zm27.317-42.917c.298.297.126 7.348.143 8.486 1.071-.066 3.037.035 4.173.057l.016-4.714c.97 1.386 2.4 2.691 3.59 3.96.222 1.497.356 6.386.151 7.872-.36.309-.315.202-.932.215-1.918-.009-4.938-.088-6.753.114.053-1.28.064-2.617.094-3.905l-3.921-.017q.038-2.054.002-4.106c-.774.142-1.7.253-2.492.366 1.577-1.578 4.796-6.284 5.93-8.328m39.517 54.389q3.732.05 7.46 0c-.156 1.616-.131 2.178-.005 3.784 1.93.02 3.846.05 5.777-.008-.04 1.164-.08 2.37.075 3.523-2.15-.201-5.654-.093-7.909-.08l-1.76.135c-.045 1.237-.033 2.537-.042 3.78-2.582.155-4.776.03-7.35 0 .013-1.163.058-2.42-.068-3.567 1.307.023 2.494.033 3.799-.005zm-3.624-54.84c.717.606 1.474 1.784 2.107 2.531 2.831 3.342 2.786 5.805 2.79 9.977q-2.397.014-4.794-.023c-.585-.44-.321-3.098-.223-3.845-1.276-.025-2.8-.068-4.052.057l-.003-3.59c1.105.093 2.829.045 3.979.046.116-1.69 0-3.486.196-5.153m29.21 47.046c1.189.053 2.615.024 3.822.031l.015 3.785c1.116-.007 2.373-.079 3.26.598.453 1.063-1.088 1.841-1.877 2.297a347 347 0 0 0-3.276 1.906c-.856.528-1.185.754-1.957 1.406.017-.869.002-1.771 0-2.643-1.255-.006-2.777-.058-3.999.101q.038-1.827.05-3.656a94 94 0 0 1 3.969-.035zm-41.173 15.336c2.23.15 5.342.053 7.638.044l-.005 3.536-3.908.004a41 41 0 0 1-.129 2.448l-.221.166c-1.992.01-5.167.254-7.191.436l-.025-2.744c1.405.01 2.471.037 3.875.159zm-27.249-22.94c2.27.263 5.149.109 7.488.031l-.001 7.45-3.763.016c.072-1.136.05-2.604.066-3.766-1.261-.036-2.569-.023-3.835-.028.084-1.067.042-2.601.045-3.703m-8.155-19.125c2.283.113 5.397.016 7.731.008l-.003 3.638c-1.917-.025-5.922-.152-7.724.072-.014-1.233-.003-2.483-.004-3.718m43.2 34.383 3.549.176c-.03 2.36-.003 4.862.025 7.226-1.141-.072-2.45.023-3.608.078.041-2.473.023-5.003.034-7.48m-40.193-42.054 4.718.02.007 3.671-2.477-.011c-1.562-.006-3.61-.07-5.112.175 1.448-1.322 1.864-2.203 2.864-3.855m-23.316 33.082c.186.2.06 8.181.163 9.406-.58-.476-1.102-.77-1.74-1.159-.491-.302-1.17-.587-1.708-.833-.023-.846.01-1.73.025-2.58.813-.967 2.526-3.678 3.26-4.834m76.83-32.865c.728.479 3.084 4.36 3.535 5.392.123.284.197 1.438.224 1.843a53 53 0 0 0-3.749.03q.065-3.632-.01-7.265m-64.116 15.202 3.34-.09-.02 3.595-2.949-.006c-1.21-.007-1.98-.001-3.175.128.991-1.077 1.729-2.436 2.804-3.627m23.394 18.993 3.815.003a70 70 0 0 0 .026 3.564 80 80 0 0 0-3.837.019zm23.035-19.058.146.085c.076 1.146.098 2.328.136 3.478l-3.358.037-.208.014c-.214-.416-.148-2.902-.164-3.606 1.116.03 2.323 0 3.448-.008m-11.23 34.385c.878.086 2.65.038 3.591.042-.01 1.21-.035 2.33.076 3.54l-3.747.014c-.007-1.053-.082-2.609.08-3.596m11.727-11.505c1.233.143 2.477.077 3.718.04l-.015 3.55c-1.22-.044-2.445-.085-3.656.065q.03-1.83-.047-3.655m-7.974 7.673c1.09.137 2.679.143 3.76-.034-.034 1.185-.006 2.417.004 3.606-1.188-.143-2.531-.017-3.722.07q.124-1.822-.041-3.642m11.84-22.787c.998.082 2.756.029 3.809.03-.13 1.257-.16 2.252-.185 3.522-1.3-.059-2.34-.1-3.635-.047zm-35.16-19.332c1.282.1 2.335.142 3.622.155-.105.998-.07 2.461-.001 3.463-.436.087-3.088.066-3.625.066a74 74 0 0 0 .004-3.684m-12.029 7.806 3.691.02a58 58 0 0 0 .038 3.41c-1.137-.09-2.622-.026-3.757.092-.021-1.162.011-2.357.028-3.522m23.728 19.128c1.091.068 2.552.032 3.67.04-.16 1.182-.141 2.294-.15 3.483-.658.092-2.776.044-3.54.044zM128.748 236.8c.792.097 2.611.05 3.48.052-.072 1.116-.09 2.369.016 3.48-1.006-.125-2.502-.089-3.512.036zm15.393 7.668c1.283.09 2.383.15 3.666.16l-.003 2.59c-.943-.122-2.705-.235-3.608-.21a86 86 0 0 0-.055-2.54m45.003-7.724c1.258-.031 2.797.083 4.073.143-.526.352-1.147.706-1.693 1.037-.754.383-1.64.766-2.416 1.12zm-68.927-41.084.131.137c.095.775.168 1.523-.127 2.243-.43.347-.363.224-1.09.203-.175.041-.212.018-.398.005.004-.493 1.14-2.057 1.484-2.587"/><path d="M103.249 144.686c.672.48 5.422 5.96 6.196 6.915 3.228 3.983 7.487 8.372 10.493 12.425-1.429 2.177-3.525 4.807-5.136 6.924l-10.076 13.06-27.757 36.023c-.34-.422-.712-.837-1.069-1.245-6.866-7.66-13.792-16.91-17.666-26.517 2.523-2.162 4.769-4.77 7.014-7.226a759 759 0 0 1 6.943-7.446 2147 2147 0 0 1 31.058-32.913" fill="#fefefe"/><path d="M92.841 160.346c1.644-.981 8.598-8.52 10.015-10.289.77 1.288 2.718 3.454 3.79 4.695 1.853 2.144 3.812 4.553 5.768 6.568-1.673.942-6.106 5.505-7.688 7.096l.15.41.19.084c.798.811 1.583 1.576 2.281 2.478-3.01 1.31-.78 1.76-.595 2.905-1.107 1.969-2.94 3.558-3.97 5.537-.463-.565-.905-1.292-1.697-1.305-.47.716.667 1.573 1.16 2.043-.675.63-1.005.904-1.532 1.685a64 64 0 0 0-2.003-1.956c-1.042.712-1.437 1.103-2.35 1.998a46 46 0 0 0 2.8 2.422c-.682.756-2.948 3.634-3.415 4.022-.479-.167-.573-.74-.523-1.202.313-.636 1.138-1.228 1.695-1.924-.712-.775-1.12-1.157-1.922-1.841-.898.776-1.505 1.208-2.132 2.218-.729-.828-1.146-1.226-1.975-1.96-.847 1.068-2.902 3.649-1.955 4.967.783.352 1.278.09 2.06-.202.58.19 2.331 1.977 2.866 2.5-.08.465-7.713 10.251-8.596 11.21.124-.47.505-.899.809-1.301-.778-.717-1.272-1.168-2.125-1.785a114 114 0 0 1-3.315 3.386c.692.716 1.795 2.002 2.478 2.565-.695.74-2.589 3.117-2.946 4.003l-.182-.004-1.77-1.912c-1.646 1.53-1.93 1.698-.26 3.384-1.073.583-1.348.593-1.983 1.613-.246-.113-3.744-4.77-4.28-5.412.137-.637.195-1.313.607-1.776 1.285-.551 2.591 1.793 3.316 2.739l1.413-2.224c-.571-.553-1.206-1.27-1.772-1.762.683-.305 1.581-1.175 1.929-1.213.53.296 1.129 1.075 1.602 1.55.577-.561 1.213-1.01 1.355-1.765-.156-.747-.95-1.248-1.565-1.752.926-.55 1.256-.863 2.063-1.573a51 51 0 0 0-1.916-1.865c-1.95 1.576-2.96 2.596-4.706 4.472-.737-.828-2.756-2.883-3.598-3.567 1.737-1.39 3.446-3.02 4.744-4.83-1.125-1.057-2.793-2.5-3.581-3.761.6-1.77 3.11-4.006 2.97-5.546l-.205-.193c-.664.093-.758.253-1.28.792-.538-.533-1.14-1.103-1.648-1.657 1.226-.883 3.56-3.526 4.463-4.806.78 1.648 2.263 2.622 3.426 4.141.792-.773 1.24-.914 1.593-1.96l.097-.35c-1.071-1.156-2.387-2.562-3.612-3.533 1.439-1.184 6.535-6.44 7.546-7.73.603.935 1.896 2.599 3.058 1.746 1.51-1.107-.606-3.189-1.246-3.845 1.08-.633 3.592-3.338 4.286-4.433.637.853 1.008 1.24 1.783 1.976-1.165 1.052-2.346 2.284-3.538 3.38.841.801 3.03 2.661 2.694 3.845-.313.252-.526.214-.932.233-.337-.229-.415-.324-.814-.396-1.42.69-2.327 1.771-3.258 3.008-.434-.66-1.324-1.61-1.9-2.417-.697.808-1.847 1.936-2.618 2.764l.96.65c1.06.718 2.628 1.055 4.097 1.957 1.498-1.151 4.114-4.807 5.761-4.699 1.177.08 4.856 4.028 6.05 5.121a69 69 0 0 0 2.894-3.529 20 20 0 0 0-1.401-1.942c.636-.633 1.282-1.336 1.903-1.99-1.357-1.493-8.63-9.223-9.868-9.956"/><path d="M80.996 180.136c.829-.558 1.265-.98 1.939.114.007.625.092.354-.219.854-.93.232-1.011-.4-1.817-.618zm21.826-9.46a13 13 0 0 1 1.904-2.26l.15.41.19.084c-.758.85-1.306 1.174-2.244 1.766" fill="#f2eff3"/><path d="M102.724 153.188c1.227.23 6.425 6.23 7.662 7.422-2.385 2-4.632 5.056-7.282 6.977-1.287-.476-6.134-5.792-7.51-7.14 2.325-2.294 4.854-4.908 7.13-7.26" fill="#fefefe"/><path d="M102.7 156.394c1.206.587 2.74 2.912 4.41 3.97-1.071.9-3.008 2.96-4.045 4.034-.334-.086-3.575-3.498-4.219-4.081 1.356-.943 2.864-2.606 3.854-3.923"/><path d="M82.698 183.656c1.546.511 3.085 2.62 3.847 4.042-.116 1.066-.705 3.687.7 3.981 1.014-.306 1.389-1.068 2.014-1.945l2.324 1.865c-1.246 1.555-2.186 2.361-3.669 3.67-.496-.56-1.019-1.237-1.496-1.825l-.914 1.41c.292.549.598.974.948 1.483-.015.563-.391 1.08-.679 1.587-1.052-1.093-2.758-2.778-3.496-4.018l-1.752 1.799a120 120 0 0 1-3.433-3.13c.748-.773 1.096-1.12 1.944-1.776-.691-.488-1.123-.945-1.718-1.534 1.688-2.081 3.44-3.782 5.38-5.609" fill="#fefefe"/><path d="M82.339 188c.438.31 1.282 1.202 1.968 1.725a30 30 0 0 0-1.686 1.5c-.687-.347-1.209-1.037-1.741-1.624.781-.64.879-.786 1.459-1.601"/><path d="M84.525 176.583c.611.278 3.9 4.514 5.535 5.797a56 56 0 0 1-2.436 2.231c-.186.116-.198.075-.456.093-1.237-.753-1.96-2.341-2.984-3.517l-.11-.124 1.31-1.022c-.717-.795-1.363-1.42-2.137-2.16zm9.997.03c.653.156 1.552 1.134 2.064 1.628-.817.682-2.718 2.844-3.743 3.814l-.943-1.015c-.921-.896-1.402-1.402-2.202-2.4.483-.587 1.095-1.24 1.61-1.814.404.44 1.006 1.229 1.53 1.377.564-.204 1.194-1.06 1.684-1.59" fill="#fefefe"/><path d="M76.923 182.83c1.429.337 1.688 1.18.746 2.282-.45.286-.55.375-.973.107-.303-.794-.02-1.602.227-2.389" fill="#f2eff3"/><path d="M69.337 185.216c.311.132 1.045.909 1.973 1.392-1.744 1.478-2.594 2.553-4.117 4.207.567.448 1.603 1.109 1.71 1.77-.152.51-1.78 1.866-2.273 2.332.764.697 1.158 1.037 2.004 1.631-.761.731-1.095 1.039-1.954 1.65a178 178 0 0 0 3.853 3.953l-1.3 1.317c-2.427-4.09-4.07-7.229-6.24-11.396.677.55 1.257 1.063 1.903 1.645.605-.627 1.138-1.28 1.697-1.948-.626-.478-1.233-1.074-1.812-1.613 1.385-1.067 3.705-3.454 4.556-4.94m25.199-19.166c1.99 1.834 3.985 4.288 6.053 5.977-.836.573-1.003.732-1.593 1.556l-.232-.055c-.771-.949-4.9-5.097-5.846-5.909.842-.564 1.127-.682 1.618-1.569m18.148-4.196c.255.215 1.49 1.766 2.083 2.35-.91.865-2.703 3.343-3.77 4.55-.072.056-.01.022-.271.075l-.098-.293c.124-1.038.487-1.553 1.181-2.313l-1.748-1.7c1.097-.92 1.675-1.584 2.623-2.67"/><path d="M197.33 144.567c.815.616 3.282 3.35 4.073 4.19l8.72 9.313 17.5 18.62c4.833 5.1 10.205 10.59 14.775 15.87-4.764 10.327-10.151 18.155-17.807 26.497l-.846 1.1c-1.452-2.17-3.211-4.3-4.818-6.372l-7.836-10.145-20.278-26.4a960 960 0 0 1-10.132-13.197c1.251-1.565 3.059-3.473 4.408-5.027a928 928 0 0 0 6.956-8.218c1.707-2.004 3.67-4.182 5.284-6.231" fill="#fefefe"/><path d="M215.82 168.879c.71 1.128 6.126 6.712 7.293 7.687-.9.75-3.092 2.612-3.515 3.633l-.091.197q.87.927 1.687 1.896c1-1.398 2.126-2.005 3.097-3.309.26-.348-.025-.16.382-.489 1.213 1.405 3.062 3.607 4.455 4.74-.501.465-1.012 1.029-1.485 1.527-.378-.447-.613-.799-1.168-.94-.577.062-.968.512-1.424.905 5.306 4.995 4.716 4.186.19 8.912 1.486 1.242 3.456 3.715 4.984 4.62-.9.718-2.913 2.74-3.713 3.608-1.566-1.604-2.868-3.088-4.604-4.52-.822.743-1.117 1.073-1.818 1.937a24 24 0 0 0 1.88 1.541c-.783.586-1.463.898-1.597 1.817.232.673.93 1.234 1.42 1.793.356-.454 1.13-1.505 1.628-1.669.45.082 1.317.987 1.822 1.384-.548.551-.888.985-1.364 1.587.378.9.558 1.548.825 2.486 1.178-1.376 2.417-2.488 3.55-3.966.817 4.196-.598 4.609-3.034 7.705-.933-1.142-1.925-1.501-2.19-1.92.281-.43.64-.517 1.142-.785-.62-.77-1.14-1.333-1.822-2.05-.41.52-1.18 1.672-1.756 1.8-.465-.22-1.9-2.778-3.11-3.59.84-.91 1.66-1.688 2.484-2.64-1.337-1.39-2.174-2.296-3.397-3.784-.933.785-1.383 1.378-2.036 2.377-1.049-1.5-6.917-9.266-7.983-10.016 2.538-2.186 1.926-2.404 5.42-3.54-.661-1.404-1.295-2.273-1.427-3.826l-.274-.168c-1.008.107-1.66 1.318-2.55 2.039-1.241-.529-1.342-3.72-3.925-.169.71.92 1.19 1.39 2.042 2.16-.276.303-.634.649-.927.946l-.187-.051c-.532-1.156-2.23-3.233-3.19-4.06 1.05-.887 1.687-1.44 2.615-2.437-.893-.9-1.295-1.282-2.31-2.026-.432.49-1.25 1.532-1.782 1.774-.608-.21-1.212-1.176-1.669-1.76l-.332-.361c-1.486-2.032-3.043-3.97-4.388-6.103-.439-.697-.848-1.302-1.448-1.875.712-.728 2.053-2.16 2.973-2.562.296-.128 2.409 1.41 2.908 1.622.62.265 1.102.86 1.538 1.381-.587.835-.785 1.149-1.534 1.85 1.518 1.222 2.158 2.08 3.097 3.787 2.487-2.308 3.702-4.318 6.854-5.61 1.891 1.632 3.217 3.429 5.042 5.036.523-.394 1.365-1.134 2.017-1.065l.103.226c-.542 1.838-3.375 4.41-4.761 5.736 1.01.946 1.723 1.595 2.815 2.433.859-.691 2.498-2.45 2.473-3.614-.044-1.99.21-2.096 1.49-3.39a9 9 0 0 1-.434-.294c-.457-.334-.543-.476-.618-.999.245-.896 1.087-1.24 1.89-1.725-.823-.925-1.505-2.003-2.668-2.272-.531.167-.357.1-.756.638-.37.561-.706.919-1.391.73-.966-1.011-.03-2.324.707-3.117.818-.6 1.23-.975 1.855-1.808"/><path d="m213.965 170.687.19.2c.609.86.377 1.102.153 2.105l.341.082c-.37.561-.706.919-1.391.73-.966-1.011-.03-2.324.707-3.117" fill="#f2eff3"/><path d="m213.965 170.687.19.2c-.565.495-1.019 1.86-.679 2.546.43.026.529-.102.832-.44l.341.081c-.37.561-.706.919-1.391.73-.966-1.011-.03-2.324.707-3.117" fill="#5d6868"/><path d="M219.507 180.396c-.632.424-.875 1.223-1.674.914-.304-.437-.317-.41-.333-.972.55-1.03 1.296-.545 2.098-.139zm-21.451-.522c.293-.79.526-1.559 1.538-1.356.42.818-.577 1.356-1.206 1.718z" fill="#f2eff3"/><path d="M217.668 183.828c1.45.484 4.39 4.097 5.593 5.425l-1.843 1.53a32 32 0 0 1 1.897 1.844 71 71 0 0 0-3.319 3.059c-.801-.7-1.055-1.014-1.727-1.846-.674 1.097-2.24 3.212-3.532 3.472-.476-.148-.27-.01-.562-.528.306-.614.556-1.265.817-1.901-.217-.523-.586-1.149-.864-1.657-.48.705-1.08 1.313-1.661 1.938l-3.456-3.5c.76-.588 1.45-1.275 2.15-1.936.572.803 1.27 1.954 2.333 1.903.873-.746.53-3.082.823-4.25.214-.85.347-1.097.72-1.88a82 82 0 0 0 2.631-1.673" fill="#fefefe"/><path d="M217.874 188.19c.534.158 1.297 1.04 1.83 1.522-.795.562-.982.75-1.646 1.44-.237.067-.12.045-.42-.068-.4-.452-.98-.978-1.118-1.502z"/><path d="M205.683 176.752c1.143.053 1.226 1.055 2.057 1.543l.362-.315c.588-.52.85-.935 1.653-.74.912 1.18.478 2.445-.5 3.375-.518.384-.982.816-1.463 1.245-1.171-1.29-2.263-1.97-3.657-3.615.524-.612.949-.964 1.548-1.493" fill="#fefefe"/><path d="M197.64 150.2c.357.259 1.432 1.493 1.832 1.858 1.894 1.734 6.3 7.097 8.21 8.247-2.273 1.86-4.448 4.71-6.632 6.74a77 77 0 0 0-3.05 3.04l-.179.227c-.206-.043-.247-.044-.394-.206-2.308-2.548-6.36-6.893-9.132-8.822 1.206-.91 8.738-9.75 9.345-11.085"/><path d="M197.609 153.193c.962.235 6.38 6.12 7.292 7.235l-.106.125-.178.208c-1.446 1.699-5.118 5.223-6.854 6.706-1.046-.16-6.295-5.782-7.36-6.901 1.106-1.611 5.56-6.076 7.206-7.373" fill="#fefefe"/><path d="M197.622 156.385c.42.172 3.157 3.239 4.116 3.862-1.337 1.186-2.789 2.814-4.037 4.14-.479-.314-2.896-3.005-4.232-3.985 1.218-.875 3.166-2.88 4.153-4.017m33.311 28.865c.227.078 3.96 4.292 4.89 4.976-.897.612-1.192.845-1.991 1.592.591.674 1.28 1.379 1.897 2.04.317-.36.899-1.139 1.38-1.117.043 1.887-4.492 8.635-5.72 10.626l-.238-.01c-.334-.35-.58-.608-.825-1.03.104-.803 2.693-3.272 3.448-4.082-.873-.629-1.02-.818-1.705-1.628q1.035-.825 2.061-1.66a372 372 0 0 1-2.923-2.556c.698-.457 1.456-1.013 2.144-1.5-1.1-1.051-2.8-3.111-3.96-4.346.75-.498 1.01-.545 1.542-1.305m-21.543-22.73c.664.387 3.51 3.58 4.67 4.522-1.66.995-1.911 2.345-3.098 3.787-.306.372-1.038.906-1.444 1.21-.432-.279-.826-.8-1.182-1.202 1.006-1.025 1.919-2.097 2.86-3.181-1.146-1.193-2.211-2.367-3.57-3.31.812-.597 1.31-.928 1.765-1.826m-3.586 3.674c.262.079 1.54 1.172 1.842 1.416-1.362 1.125-4.898 4.591-5.783 6.063a30 30 0 0 1-1.724-1.677c2.152-2.052 3.697-3.571 5.665-5.802m-18.028-4.245c.334.189 2.357 2.163 2.757 2.543-.762.75-1.433 1.416-2.148 2.21l-.077.051c-.444-.124-1.826-1.971-2.32-2.53.798-.782 1.196-1.357 1.788-2.274"/><path d="M84.911 123.17c.307.06.408.156.613.39 5.65 6.433 11.015 13.217 16.694 19.617a5122 5122 0 0 1-40.327 42.902c-1.417 1.567-3.036 3.022-4.394 4.623-4.72-10.6-8.075-24.915-8.251-36.552.9-.523 2.373-1.91 3.196-2.637l5.222-4.611 16.428-14.446c3.191-2.82 7.477-6.777 10.819-9.285" fill="#fefefe"/><path d="M90.421 135.62c.895.377 5.535 6.999 7.076 8.261-.98.82-3.942 4.089-5.06 5.214-.346-.37-.604-.567-.723-1.055.492-1.91-.284-2.198-1.588-3.526-.72.645-1.284 1.238-1.95 1.935.608.791 1.212 1.42 1.892 2.148-.653.334-1.07.649-1.665 1.068a198 198 0 0 0 1.887 2.021c-1.41 1.3-6.546 6.384-7.402 7.903-.594-.63-1.161-1.38-1.993-1.562-.935.13-1.481 1.097-2.094 1.872-.473-.877-.92-1.456-1.51-2.255-.69.767-1.467 1.527-2.197 2.264a52 52 0 0 0 3.922 3.832c-1.374 1-2.63 2.405-3.674 3.743-.668-.828-1.225-1.317-2.106-1.891.956-.456 1.816-1.275 2.627-1.973-.372-.339-1.999-2.01-2.032-2.473 1.425-1.843-.741-4.362-1.865-5.85-.478.493-1.167 1.023-1.707 1.467.661.775 1.33 1.477 2.029 2.216-1.087.957-2.454 1.8-3.412 2.776-.942-1.974-.93-2.295-2.489-3.845-.687.766-1.072 1.21-1.664 2.05-.888-1.351-2.366-2.63-3.585-3.661.992-.681 2.575-2.357 2.955-2.546.437.193.622.674.994 1.164.397.077.51-.117.973-.392.432.045 1.782 1.762 2.193 2.226q1.34-1.214 2.648-2.462c-.683-.74-.986-1.097-1.795-1.698.95-.366 1.274-.738 2.023-1.425l.184.009c1.409 1.403 3.407 4.16 4.63 5.782.861-.88 1.202-1.263 1.921-2.258 1.233.882 2.263 1.894 3.368 2.927.497-.39 1.55-1.443 2.054-1.919-1.55-1.58-2.575-2.086-4.48-3.19-.658.779-.94.955-1.824 1.457-1.052-.4-1.561-.417-2.678-.536l-.085-.177.292-.248c.611-.653 2.255-1.646 3.363-2.707-.685-.55-1.324-1.246-1.942-1.88-.607.593-1.24 1.266-1.837 1.877-.788-1.195-3.653-4.534-4.686-5.847-1.135.525-1.349.822-2.233 1.7.503.6 1.73 1.855 1.79 2.555-.183.423-2.478 2.026-3.127 2.823-.89-1.12-2.655-3.267-3.657-4.17 1.532-.931 4.073-3.35 5.49-4.654.48.85.586 1.24 1.482 1.539.536-.315 1.793-1.59 1.803-2.212-.36-.57-.772-.815-1.311-1.225.558-.579 1.497-1.761 2.159-1.922.42.19 1.306 1.23 1.791 1.688-.756.567-1.488 1.144-2.253 1.71.487.748 1.968 2.248 1.943 2.773-.662.534-1.688.868-1.609 1.69 2.423 3.694 6.728-3.323 8.821-4.054.413-.144.697.1 1.043.305l.207.125c.475-.084 1.158-.731 1.622-1.073.412.282 1.26 1.243 1.446 1.72-.836.297-.957.64-1.65.568-.517-.467-.839-.668-1.416-1.05-1.4 1.423-3.17 3.172-4.726 4.411 2.607 2.079 3.707 4.865 6.684 7.18.461-.56.967-1.124 1.446-1.674-.749-.68-1.218-1.147-2.02-1.798.551-.31.982-.638 1.494-1.007-1.13-1.008-1.897-2.036-3.188-2.998.493-.456 1.002-.995 1.477-1.476 1.052 1.061 2.051 2.069 3.056 3.18a72 72 0 0 1 2.11-2.276c-.863-1.114-1.781-2.22-2.925-3.053.557-.666 1.147-1.115 1.81-1.67-.746-.969-2.211-2.228-2.298-3.014.26-.556 1-.91 1.553-1.256.96 1.238 2.02 2.207 2.89 3.503.55.816.504 2.173 1.27 2.615.985 0 1.96-.962 2.761-1.593-1.387-1.485-2.734-3.872-4.204-5.526.654-.438.958-.607 1.481-1.22M55.33 153.888c.185.115 1.345 1.646 2.178 2.307-.784.515-1.402.997-2.228 1.503 1.167.79 2.996 2.963 3.984 4.085l1.934-1.882c.52.788 1.485 1.815 2.138 2.553.582-.622.849-1.43 1.457-1.621.33.237 1.009.839 1.12 1.233-.723.869-3.246 2.976-4.305 4.006 1.036 1.237 2.112 2.738 3.091 4.039.813-.987 2.032-1.565 1.962-2.861-.289-.574-.674-.766-1.203-1.141 1.442-.763 2.022-1.509 2.836-2.842.72.86.938 1.03 1.827 1.715-1.243.714-1.985 1.562-3.023 2.55.898.86 1.589 1.778 2.647 2.434.74-.79 1.369-1.443 2.019-2.306.674.952.854 1.191 1.823 1.855-1.092.807-1.66 1.302-2.432 2.393-.63-.978-.96-1.235-1.818-2.029-1.328 1.136-2.432 2.105-3.688 3.323.712.405 1.733 1.237 2.429 1.77l-1.134 1.15c-.576.562-1.867 2.107-2.461 2.258-.164-.084-2.4-3.292-2.862-3.834-.799.629-1.386 1.079-2.238 1.63.838.887 2.415 3.11 3.213 4.177-.176.31-2.881 3.044-3.105 3.113q-.493-1.389-1.015-2.769c.92-.57 1.237-.829 2.056-1.547-.423-.457-1.017-1.217-1.656-1.299-.779-.101-1.16.232-1.497-.668.198-1.645 2.072-3.38 3.268-4.389.721.36 1.09.646 1.738 1.112.045-.983.067-1.98.098-2.965q-.84-.803-1.667-1.623c-.502.49-1.346 1.052-1.933 1.475-.64-.414-.985-.626-1.739-.584-.689.32-.543.842-1.121 1.35l-.257-.023-.157-.315c.136-.707 1.013-1.223 1.57-1.639a54 54 0 0 0 3.928-3.226c-1.68-1.689-6.051-5.753-7.211-7.46-.022-1.021-.123-2.1-.202-3.125.449-.572 1.142-1.32 1.636-1.883"/><path d="M81.773 130.013c.181.09.29.186.431.35.792.876 1.958 1.213 2.846 2.084.696.681-.2 2.602.36 3.15.426-.606.616-1.285.869-1.989.851.987 1.284 1.628 1.988 2.725-.961.523-1.058.539-1.872 1.308l-.809-.947c-.417-.44-.925-.836-1.394-1.227-.454.527-.837 1.285-1.333 1.757-2.295-1.678-1.52-.597-3.58-1.308l-.011-.252c.35-.442.874-.625 1.392-.872-.65-.964-.946-1.394-1.808-2.164 1.336-.754 2.051-1.384 2.921-2.615m-21.878 19.499c.6.179 1.807 1.6 2.31 2.142-1.115.93-2.13 1.828-3.117 2.894.71.708 1.144 1.023 1.945 1.619-.67.46-1.162.814-1.616 1.487l-.144.047c-.44-.331-1.391-1.35-1.827-1.796l2.043-1.781c-.762-.712-1.51-1.439-2.33-2.083.928-.828 1.753-1.676 2.736-2.529m15.989-6.572c-.461-.85-1.484-2.01-1.66-2.52.193-.412 1.695-1.546 2.24-2.071.5.81.862 1.486 1.715 1.914l.295.267c-.912.65-1.905 1.522-2.59 2.41m.773-8.349c.502.142 1.36 1.172 1.866 1.662-.796.535-1.326.88-1.926 1.636-.128-.066-1.48-1.445-1.784-1.72.548-.521 1.256-1.085 1.844-1.578m-22.391 28.795c.87.404 1.46 1.495 2.285 1.977.327.19.193.074.528.356-.196.492-.336.472-.827.86-.41.363-.737.806-1.08 1.235-.387-1.403-.53-2.922-.906-4.428m31.827-32.968c.543.211 1.36 1.552 1.553 2.132-.156.471-.154.342-.702.684-.261.13-.31.121-.597.194l-.262-.169c-.55-1.057-.577-1.82.008-2.84"/><path d="M78.179 140.263c1.102-1.08 1.646-1.465 3.03-2.149-.842.938-1.737 1.646-2.735 2.416z"/><path d="M215.758 122.993c.434.264 1.962 1.65 2.41 2.042l6.623 5.904 19.561 17.136c1.252 1.106 6.032 5.483 7.115 6.005-.595 13.18-3.051 24.525-8.227 36.615l-4.501-4.636c-2.058-2.362-4.836-5.15-7.023-7.468l-14.965-15.854-11.88-12.72c-1.79-1.92-4.605-5.126-6.405-6.78 5.549-6.84 11.839-13.49 17.292-20.244" fill="#fefefe"/><path d="M228.741 138.517c.57.476 1.588 1.624 2.244 2.233-.637.495-1.145.758-1.267 1.547.22.805.998 1.351 1.647 1.952-1.34 1.557-3.383 3.996-4.654 5.622-.505-.535-1.532-1.39-2.137-1.961-.88 1.699-.89 1.976.577 3.326.445.41 1.31 1.366 1.088 2.013-1.107-.138-5.658-4.157-6.678-5.09q-1.08.56-2.102 1.218c-.432.28-.738.507-.844 1.019.592 1.59-.148 1.84-1.287 2.857l1.665 1.75c.914-.843 1.358-1.196 2.39-1.864-.436.85-1.301 1.808-1.931 2.565q1.014.968 2.021 1.945c.693-.732 1.37-1.466 2.107-2.153.692.062.928 1.276 2.211 1.601 1.375-.15 3.074-3.214 3.945-4.248.555-.658.964-1.135 1.58-1.774.746.95.988 1.039 2.068 1.513-.658.494-1.18 1.039-1.768 1.613a61 61 0 0 0 2.724 2.613c.566-.848 1.074-1.905 2.006-2.2.398.107.496.13.905.172.527-.24.81-.786 1.151-1.278.592.744 2.747 2.423 2.754 3.049-1.337 1.08-2.344 1.9-3.218 3.438-2.268-3.724-3.44-.456-4.176 1.94-.432-.66-2.663-2.334-3.48-3.1.735-.614 1.43-1.367 2.104-2.06-.406-.41-1.197-1.304-1.674-1.497-.992.96-1.96 1.973-2.398 3.318-.268.82-.256 1.574.167 2.329.016.028.185.306.196.354.047.21-1.48 1.752-1.746 2.136l-.124.182c.854.97 1.467 1.375 2.546 2.01-1.089.599-1.306.82-2.001 1.85-1.156-1.244-2.536-2.785-3.912-3.733 1.103-.78 3.242-2.815 3.944-3.96-.717-.683-1.443-1.426-2.15-2.125-.69.796-.976 1.235-1.467 2.15-.545-.662-1.315-1.45-1.914-2.094-1.23.795-1.287.923-1.918 2.182-.743-1.432-5.855-6.458-7.342-8.127l1.62-1.855-1.322-1.388a96 96 0 0 1 1.554-1.812c.672.93.99 1.223 1.828 2.022l.9-.36c.578.114.664.127 1.249.137l.161-.161c-.124-.23-.23-.42-.368-.645l-.115-.186c.249-.56 1.035-1.285 1.49-1.757.486.706 1.098 1.275 1.702 1.88a29 29 0 0 1 1.898-1.483l-2.334-2.877c-.65.453-1.38 1.332-1.76 1.516-.213-.222-.306-.398-.447-.67-.384-.13-.422-.126-.752-.35.213-.485.86-1.271 1.28-1.622 1.094.55 1.009.936 2.296.53 1.568.332 3.456 2.569 4.849 3.603 1.047.778 1.577 1.201 2.735 1.907.928-.548 1.295-.863 2.127-1.56-.535-.476-1.578-1.24-1.78-1.809.064-.523 1.462-1.923 1.895-2.417-.527-.301-1.759-1.372-2.425-1.851.905-.677 1.306-1.05 1.867-2.025"/><path d="M244.997 154.002c.68.296 1.084 1.216 2.172 1.806a30 30 0 0 0-.372 3.104c-2.656 2.433-4.881 5.02-7.67 7.434 1.704.936 3.38 2.429 4.926 3.632.639.496 1.002 1.013.85 1.819l-.227.142c-.492-.32-.394-1.559-1.096-1.68-2.437-.422-1.64.72-3.892-.938-1.031.916-2.024 1.912-1.47 3.658.09.289.376.316.634.37.55-.12.773-.452 1.176-.867 1.008 1.763 2.12 1.628 3.524 4.839-.9.362-2.798.687-3.222 1.533.172 1.11 1.196 1.158 1.902 2.075-.068.694-.723 2.235-.98 3.136-.902-1.422-2.091-2.537-3.256-3.76.943-.844 2.398-3.046 3.177-4.156-.852-.6-1.31-1.002-2.24-1.58-.897.95-2.065 2.765-2.825 3.897l-.242.015-.385-.497c-1.017-1.067-1.922-2.068-3.047-3.027.987-.728 1.48-1.13 2.369-1.972-1.159-1.135-2.42-2.115-3.681-3.135.85-.668 1.817-1.396 1.99-2.445-.347-1.519-2.191-1.236-2.355-2.502.61-.571.958-.936 1.51-1.557.774 1.172 1.595 2.017 2.757 2.786q-.227.182-.444.375c-1.655 1.468.412 2.643 1.556 3.58.904-1.423 1.722-2.578 2.821-3.852-1.19-1.297-3.17-3.043-4.554-4.185.564-.448.889-.93 1.416-1.307.83.349.26.725 1.159 1.203 1.047-.144 1.721-1.222 2.424-2.057l1.853 1.988c.935-1.233 2.775-3.016 3.916-4.178-1.969-1.737-2.03-2.06-3.77-.026-.528-.49-1.136-.993-1.685-1.468.565-.467.93-.917 1.434-1.441 1.377-.394 1.132.82 2.39 1.057.837-.318 1.061-1.028 1.457-1.819m-26.511-24.022c.461.212 2.508 2.111 3.38 2.689-.697.488-1.202 1.056-1.8 1.663.692.646 1.34 1.05 1.382 1.959-.79.255-1.858-.149-2.548.105-.303.111-.238.566-.783.846q-.927-.879-1.868-1.745c-.583.611-1.213 1.228-1.809 1.83.42.522 1.734 1.638 1.772 1.839-1.992 1.968-1.308 2.294-2.374 4.183-.444.328-.526.431-1.078.536-.968-.624-1.238-.81-2.06-1.606.526-.464 3.151-3.693 3.82-4.472-.837-.76-1.142-.955-2.106-1.455 1.23-1.535 2.348-2.66.262-3.921.558-.476 1.363-1.393 2.094-1.162.27.719-.3 2.365-.519 3.14.706-.965 1.24-2.015 2.002-2.925.408-.489.77-.372 1.392-.384.483-.261.586-.62.84-1.12m-8.44 5.582c.494.469 1.016.863 1.549 1.285q-2.051 2.7-4.027 5.457c.926.857 1.752 1.61 2.726 2.41-.459.542-1.676 1.778-1.863 2.286.373.806.413 1.59-.57 1.97l-.19-.237c-.923-1.064-3.559-4.11-4.52-4.822 1.417-1.299 6.01-6.717 6.895-8.35m22.889 7.204c.498.203 3.87 3.548 5.548 4.573-1.073.7-3.011 3.084-3.637 4.191l-.137-.083c-.865-1.014-2.37-2.036-3.488-2.898.747-.663 1.59-1.636 2.278-2.389-.787-.663-1.297-1.068-2.145-1.645zm7.556 6.598c.76.62 2.324 1.695 2.55 2.537-.132.767-1.061 1.504-1.66 2.106l-.26.059c-.81-.838-1.819-1.717-2.689-2.51.755-.673 1.389-1.433 2.058-2.192m-20.414-10.943c.526.15 1.865 1.42 2.657 1.92.547-.775 1.026-1.272 1.669-1.966.546.585 1.68 1.506 1.986 2.11l-.111.212c-.71.67-1.052 1.358-1.516 2.195-1.024-1.213-4.452-3.271-4.685-4.47"/><path d="M228.677 167.811c.397.154 1.441 1.578 2.524 2.251-.841.626-1.175.786-1.738 1.678-.177-.08-1.984-1.915-2.41-2.29.903-.558 1.06-.73 1.624-1.639m-5.14-33.263c.738.069 1.646 1.078 2.21 1.61l-.088.085c-.685.674-.955 1.008-1.5 1.793-.912-.962-1.126-1.118-2.25-1.717.835-.675 1.062-.821 1.628-1.771m22.656 28.603c.292.287-.326 3.875-.492 4.43-.411-.11-.524-.306-.868-.623-.437-.433-.906-.783-1.388-1.164 1.106-.696 1.874-1.671 2.748-2.643"/><path d="M236.839 98.53c.129.056.417.201.49.318 9.959 16.19 14.29 34.279 14.164 53.191-.493-.49-1.043-.915-1.583-1.353-3.11-2.521-6.038-5.251-9.093-7.836l-15.599-13.671c-1.693-1.504-6.854-6.401-8.487-7.405q6-6.886 11.805-13.94c1.897-2.265 6.113-7.357 8.303-9.305" fill="#fefefe"/><path d="M231.286 110.814c.769.487 1.967 1.692 2.734 2.32 2.511 2.059 5.277 4.831 7.937 6.593-1.233.938-3.37 3.635-4.491 4.968l-4.863 5.717c-.09.096-.021.037-.264.079-2.51-2.367-7.7-6.86-10.38-8.926 1.081-.705 8.761-9.601 9.327-10.75"/><path d="M231.36 113.19c.569.352 2.16 1.795 2.741 2.3a562 562 0 0 0 5.07 4.37c-1.685 2.35-4.7 5.631-6.655 8.112-1.074-.526-6.713-5.616-7.808-6.655 1.139-1.831 5.103-6.424 6.652-8.127" fill="#fefefe"/><path d="M231.535 116.649c.411.224 3.638 2.99 4.346 3.554-.94 1.034-3.158 3.355-3.637 4.489-.824-.882-3.391-2.83-4.445-3.677 1.155-1.195 2.992-2.953 3.736-4.366m14.222 17.008c.529.283.335 2.38.51 3.02.143.524-1.316 1.78-1.669 2.115a38 38 0 0 0 2.215 1.736c-.059 1.372.018 2.038.28 3.36l-3.009-2.848c-1.132-.97-3.335-2.947-4.491-3.666 1.216-.979 2.222-2.328 3.193-3.554.617.722 1.056 1.472 2.06 1.218.496-.404.628-.806.91-1.381m-8.394-4.512c1.996.55 2.692 5.042 5.226 1.035.53.862.856.918 1.22 1.533-.017.636-.506 1.133-.913 1.771-.796-.649-1.137-1.044-2.123-1.19-1.317 1.202-1.938 1.93-2.977 3.38-.774-1.07-2.316-2.214-3.439-2.916.787-.78 2.24-2.669 3.006-3.613m-1.28-23.897.18.125c.408 1.15 1.872 3.993 2.465 5.22-.523.44-.869.795-1.5 1.054-.581-.027-.363.037-.877-.496-1.079-.9-1.975-1.685-3.173-2.433 1.08-.915 2.04-2.32 2.905-3.47m6.811 17.598.315.207c.454 1.263 1.443 4.72 1.764 5.82-1.097-1.386-1.736-3.024-3.405-1.38-.246.363-.383.654-.767.854-.346-.294-1.395-1.025-1.531-1.16.148-.542 3.073-3.718 3.624-4.341"/><path d="M63.626 98.363c1.5.563 17.33 20.34 20.379 23.327-2.937 2.16-6.786 5.809-9.565 8.289L60.4 142.374a390 390 0 0 0-11.204 9.735 100.3 100.3 0 0 1 8.586-42.679c1.684-3.822 3.506-7.592 5.844-11.067" fill="#fefefe"/><path d="M69.233 110.847c.196.093.122.033.265.206l4.357 5.192c1.213 1.473 3.367 4.268 4.815 5.372-2.079 1.504-4.41 3.636-6.367 5.33-1.157 1-3.192 2.7-4.147 3.732-.371-.619-2.31-2.794-2.88-3.43-1.796-2.004-4.552-6-6.538-7.55 1.088-.684 3.417-2.705 4.482-3.64 1.709-1.501 4.514-3.628 6.013-5.212"/><path d="M69.286 113.192c.55.24 5.621 6.92 6.782 8.067-1.962 1.632-6 5.086-7.772 6.793-2.18-2.503-4.788-5.496-6.804-8.095 2.26-2.264 5.324-4.602 7.794-6.765" fill="#fefefe"/><path d="M68.804 116.68c.634.289 3.072 3.427 4.023 4.255-1.357 1.25-2.999 2.363-4.25 3.597-1.025-.858-2.742-3.117-3.937-4.272 1.729-1.108 2.848-2.027 4.164-3.58m-11.03 17.213c.705.572 2.406 2.67 3.207 3.49-1.422.912-6.077 4.98-7.097 6.298-.143-.342-.017-2.2-.074-2.954.52-.596 1.494-1.359 2.128-1.888-.668-.583-1.157-1.322-1.691-2.038.465-1.155.43-2.085.495-3.325.394.768.578 1.521 1.454 1.72.622-.209 1.096-.811 1.578-1.303m5.216-4.596c.647.197 2.52 2.7 3.008 3.361-.248.42-2.459 2.202-3.055 2.869-1.049-1.082-1.936-2.09-3.035-3.147-.844-.386-1.433.765-2.1 1.03-.538-.567-.953-.96-1.527-1.48.677-.455 1.27-1.196 1.855-1.467l.259.135c.948 2.239 1.844 1.134 3.282-.055.447-.37.89-.84 1.312-1.246m1.629-24.064c.312.241 2.414 3.009 2.595 3.48-.175.558-2.196 1.846-2.81 2.4-.493.416-.503.576-1.101.48a18 18 0 0 0-1.13-.983c.863-1.814 1.678-3.521 2.446-5.377m-7.186 17.604c.456.276 3.546 3.706 4.081 4.282q-.807.65-1.6 1.319l-1.029-1.047c-.093-.084-.658-.755-.77-.886-.892.72-1.58 1.453-2.38 2.273.938-2.142 1.305-3.625 1.698-5.941"/><path d="M31.685 89.548c2.25.742 5.043 2.709 7.642 3.536-1.435 2.772-2.382 4.668-3.505 7.59-1.052-.3-6.454-3.043-7.697-3.661 1.287-2.557 2.532-4.775 3.56-7.465m227.963-14.23c.835.397 3.642 5.653 4.665 6.868a768 768 0 0 1-6.747 4.264l-.323-.07c-1.398-1.749-3.273-5.074-4.559-6.72 2.358-1.25 4.562-2.972 6.964-4.342m-46.434 181.888c.666.749 3.079 5.684 4.148 7.187-2.278 1.18-5.04 2.9-7.26 3.92-.755-.425-3.398-5.993-4.116-7.235a202 202 0 0 0 7.228-3.872m54.943-167.559c.529.444 3.358 6.59 3.797 7.532-2.632 1.106-4.799 2.058-7.348 3.348-.663-.225-3.297-6.375-3.85-7.497 1.706-.45 5.497-2.52 7.401-3.383M40.253 75.203c1.95.925 4.702 3.334 7.053 4.423-1.621 2.474-3.015 4.423-4.446 7.047-1.24-.502-5.888-3.701-7.072-4.552 1.509-2.182 3.068-4.654 4.465-6.918m138.424-54.629c3.202.364 5.31.973 8.326 1.909-.717 2.167-1.447 5.234-2.09 7.503-.067.146-.127.156-.275.274-2.038-.092-5.419-1.458-7.634-1.79.59-2.524 1.106-5.32 1.673-7.896m70.676 41.508c.753.371 4.465 5.321 5.525 6.376-1.987 1.596-4.459 3.502-6.27 5.258-1.15-.94-4.19-4.96-5.55-6.364 1.375-.85 4.927-4.07 6.295-5.27M62.045 238.137c.917.364 5.085 4.532 6.154 5.527-1.89 1.976-3.569 3.95-5.412 5.909-1.23-.554-5.004-4.389-6.21-5.575 1.792-1.83 3.514-4.215 5.468-5.861M281.24 137.466c.521-.08.726-.107 1.082.131.435 1.481.48 6.45.54 8.26-2.207.054-4.515.187-6.723.311-.505.01-.587.017-1.107-.066-.56-.686-.725-6.98-.788-8.21q3.504-.11 6.996-.426m-6.544-32.429.283.1c.913 1.683 1.84 5.634 2.726 7.678-2.196.55-5.358 1.752-7.561 2.524-.563-.27-2.694-6.769-3.063-7.798 2.534-.798 5.09-1.669 7.615-2.504M62.25 50.49c.867.278 4.904 4.957 5.735 5.86-1.924 1.86-3.98 3.743-5.93 5.615-2.283-1.988-3.786-3.743-5.765-6.022 1.803-1.398 4.198-3.82 5.96-5.453m57.954-29.797c.427-.06.607-.13 1.003.042.702 1.09 1.517 6.254 1.777 7.74-2.295.499-4.75 1.174-7.081 1.708-.079.02-.412.045-.506.053-.71-.69-1.925-6.36-2.267-7.696 2.572-.864 4.451-1.349 7.074-1.847M89.635 31.765c.735.155 3.347 5.85 4.233 7.145-2.389 1.349-4.67 2.483-7.089 3.91-.603-.363-3.654-6.152-4.285-7.217 2.48-1.168 4.758-2.484 7.14-3.838M237.602 50.51c1.652 1.078 4.584 4.037 6.176 5.533-1.903 1.904-3.778 3.962-5.62 5.935-2.144-1.716-4.108-3.736-6.131-5.624 1.917-1.892 3.649-4.072 5.575-5.844M50.581 62.061c1.313.775 4.718 4.145 6.35 5.282-1.232 1.312-4.477 5.027-5.34 6.51-.863-.954-5.267-4.478-6.44-5.394 1.816-1.88 3.72-4.345 5.43-6.398M17.6 137.457q4.087.255 8.17.577c-.01 2.196-.269 6.024-.622 8.168-2.532-.018-5.381-.28-7.99-.344.153-2.892.15-5.48.442-8.4M210.157 31.531c.249.111 1.854 1.104 2.175 1.29 1.726 1 3.337 1.953 5.17 2.769a281 281 0 0 1-3.954 7.098c-.025.012-.048.03-.075.035-.586.118-6.348-3.305-7.24-3.855 1.409-2.183 2.749-4.98 3.924-7.337M21.872 153.869c1.04-.075 2.225-.047 3.28-.046.438 2.268.556 5.843.599 8.15-1.298.027-2.868.195-4.182.302q-1.937.15-3.88.201c-.427-2.865-.445-5.468-.42-8.336zm216.005 84.274c1.288.74 4.376 4.6 5.675 5.887-1.72 1.639-4.145 4.085-6.026 5.335l-.317.028c-1.094-.903-4.144-4.445-5.298-5.7 1.844-1.841 4.02-3.794 5.966-5.55m19.24-24.933c1.929 1.375 5.01 3.297 7.082 4.51-1.406 1.907-3.136 4.923-4.547 7.054-1.344-.946-5.68-3.902-7.04-4.505 1.562-2.146 3.368-4.66 4.505-7.058M51.57 226.437c.464.146 4.672 5.37 5.474 6.18-2.086 1.705-4.21 3.447-6.149 5.32-.93-.458-4.404-5.216-5.555-6.354 2.04-1.633 4.168-3.472 6.23-5.146m53.42-201.36c.62.736 2.786 6.658 3.24 7.882-2.536.556-5.173 1.743-7.536 2.808-.773-.893-2.562-6.123-3.241-7.717 2.45-.8 5.088-2.016 7.536-2.973m31.044-7.145c.218-.05 1.274-.091 1.56-.108q.536 4.107 1.03 8.22l-6.085.63c-.669.096-1.432.114-2.113.149-.413-1.964-.72-6.05-.778-8.05 1.849-.41 4.476-.634 6.386-.84m32.941 255.32c.065-.01.391.015.47.02.544.902.844 6.66.925 8.085-2.535.273-5.05.677-7.588.847l-.221-.013c-.522-.586-1.016-6.99-1.1-8.158q3.747-.47 7.514-.78m-38.559-.091c2.685.174 5.533.56 8.194.953-.117 2.104-.594 5.934-.993 7.962l-.047.063c-.551.27-6.8-.648-7.811-.791-.002-2.426.395-5.726.657-8.187m-43.751-15.904c1.009.33 6.166 3.221 7.424 3.91-1.417 2.267-2.656 4.88-3.808 7.291-1.376-.442-5.921-3.246-7.485-4.098a59 59 0 0 0 3.87-7.103M29.67 184.734l.334-.003c.437.452 2.621 6.733 2.98 7.711q-3.57 1.165-7.172 2.225c-.32.094-.298.085-.63.033-.69-.807-2.134-5.974-2.704-7.421 2.103-.976 4.976-1.959 7.192-2.545M162.445 17.68c2.631.29 5.407.76 8.028.96-.292 2.73-.513 5.61-.892 8.314-1.795-.363-6.037-.723-8.067-1 .174-2.495.615-5.773.931-8.273M42.604 213.56q.164.046.326.095c1.064 1.42 3.587 5.379 4.384 6.608-2.169 1.318-4.588 3.025-6.732 4.447-1.07-.8-3.648-5.483-4.668-6.926 2.019-1.145 4.645-2.943 6.69-4.224m205.649 12.688c2.263 1.648 4.264 3.624 6.422 5.241-1.657 2.107-3.478 4.344-5.306 6.3q-.115.008-.231.012c-1.724-1.516-4.417-3.934-6.14-5.207 1.388-1.4 4.234-4.69 5.255-6.346M224.404 40.354c1.802.648 5.065 3.522 6.85 4.761-1.615 1.903-3.015 4.292-4.67 6.201-.012.005-.025.013-.039.015-1.11.223-5.683-3.75-6.852-4.579 1.621-1.819 3.116-4.365 4.71-6.398m-148.987.043c1.056.439 3.747 5.098 5.032 6.418-2.35 1.44-4.365 3.253-6.692 4.638-.821-.443-3.936-5.118-5.012-6.315 2.336-1.767 4.192-3.205 6.672-4.74m-50.42 64.416c2.017.935 5.558 1.868 7.916 2.777-.973 2.493-1.935 5.293-2.791 7.817a144 144 0 0 1-7.695-2.76c.85-1.948 2.068-5.767 2.57-7.834M184.46 269.73c.53.42 1.975 6.573 2.403 7.747-2.238.836-4.776 1.415-7.122 1.835-.488.09-.734.195-1.18-.007-.51-.865-1.365-6.509-1.511-7.743 2.248-.422 5.181-1.243 7.41-1.832m90.35-115.917c2.567-.044 5.454.185 8.05.322-.101 2.882-.232 5.515-.525 8.38a535 535 0 0 0-8.1-.584c.124-2.697.401-5.417.574-8.118M35.492 199.515l.16.023c.252.229 3.225 6.492 3.663 7.311-1.716.526-5.248 2.492-7.037 3.399-.066-.005-.134.002-.198-.015-.704-.183-3.344-6.271-3.84-7.33 1.503-.856 5.419-2.504 7.252-3.388m234.318-15.028q3.901 1.343 7.791 2.732c-.72 1.658-2.168 6.99-2.706 7.812-1.55-.768-5.813-1.93-7.851-2.659 1.02-2.17 2.191-5.597 2.766-7.885m-70.777 79.928c.095-.005.255.036.357.057 1.072 2.276 1.947 5.102 2.934 7.53-2.475.88-4.824 1.99-7.31 2.89l-.134.017c-.705-.48-2.772-6.497-3.144-7.622 2.743-.96 4.635-1.677 7.297-2.872m26.784-15.698.298-.016c.85.358 3.808 4.997 4.976 6.216-2.332 1.488-3.727 2.963-6.503 4.53-.064.02-.35.034-.429.04-1.132-.823-3.488-4.891-4.681-6.308 2.17-1.39 4.11-3.096 6.34-4.462M194.943 25.004c1.82.833 5.884 2.507 7.664 3.08-1.11 2.14-2.167 5.459-3.133 7.833-2.57-1.281-4.827-2.294-7.6-3.119.914-2.522 2.08-5.274 3.069-7.794m69.202 174.385c2.241.887 5.429 2.433 7.623 3.457-1.03 2.494-2.4 4.692-3.401 7.302-.925.246-5.999-2.747-7.625-3.327 1.093-1.998 2.783-5.217 3.403-7.432M73.853 248.603c1.892.762 4.63 3.391 6.657 4.562-1.278 1.861-3.235 4.924-4.66 6.558-2.594-1.603-4.367-3.034-6.821-4.735 1.687-2.018 3.089-4.322 4.824-6.385M279.234 121.05c.268-.064.128-.07.42.062.695 1.948 1.34 5.851 1.693 7.998-2.51.322-4.915.869-7.39 1.382-.178.022-.323-.008-.507-.027-.596-.805-1.379-6.502-1.58-7.75a97 97 0 0 1 7.364-1.665M100.595 264.289c2.43.985 5.495 2.099 7.807 3.186a557 557 0 0 0-2.997 7.441c-.495.07-6.295-2.533-7.65-2.91.887-1.944 2.283-5.681 2.84-7.717m14.769 5.341c1.38.541 6.175 1.652 7.803 2.058-.608 2.307-.984 5.475-1.66 7.618l-.25.125c-2.743-.39-5.337-1.089-7.975-1.908.639-1.897 1.635-5.916 2.082-7.894M25.988 169.526c.25-.055.28-.017.554.016.541.75 1.456 6.408 1.716 7.754-2.134.382-5.039 1.175-7.262 1.679l-.38-.01c-.725-.896-1.634-6.606-1.928-8.122 2.2-.234 5.068-.88 7.3-1.317m-5.714-48.771c.826.422 6.67 1.668 7.96 1.96-.414 1.838-1.075 6.568-1.504 7.91-2.667-.569-5.356-1.162-8.06-1.517.385-1.624 1.472-6.89 1.604-8.353m252.996 48.644c2.635.409 5.397 1.192 8.046 1.45-.583 2.492-1.07 5.486-1.64 8.104-.402.158-6.732-1.456-7.842-1.626.53-2.283 1.003-5.555 1.436-7.928M145.936 17.275c2.617-.098 5.519-.047 8.138.008-.044 2.708.022 5.35-.078 8.078-2.572-.052-5.272-.014-7.853-.018a292 292 0 0 1-.207-8.068m.197 257.388 7.913-.006.022 8.087q-3.989.015-7.976-.02-.05-4.031.041-8.061" fill="#fefefe"/><path d="M142.534 297.832c3.894-.056 8.47.125 12.45.14-.597.064-1.68.036-2.152.311l-.112.25.144.193.006.089q-4.397.042-8.792.14c-1.331.042-3.275.235-4.528.153.552-.082 1.354-.11 1.714-.467a2.2 2.2 0 0 0-.275-.478c.348-.288 1.053-.283 1.545-.331" fill-opacity=".475" fill="#fefefe"/><path d="M156.584 297.895c.608.026 1.465-.01 1.966.265.059.352.05.24.013.595.375.203.682.189 1.11.224-1.086.111-5.699-.01-6.803-.164l-.006-.09-.144-.193.112-.249c.473-.275 1.555-.247 2.151-.312z" fill-opacity=".063" fill="#fefefe"/></svg>