<svg xmlns="http://www.w3.org/2000/svg" width="600" height="600" viewBox="0 0 300 300">
    <path
        d="M145.066 1.863c81.816-2.736 150.365 61.36 153.122 143.175s-61.32 150.381-143.136 153.159C73.21 300.976 4.613 236.87 1.855 155.026-.904 73.18 63.22 4.6 145.065 1.863" />
    <path fill="#fefefe"
        d="M147.097 6.825C226.167 5.209 291.58 67.99 293.21 147.06S232.07 291.554 153.001 293.2C73.911 294.844 8.467 232.055 6.837 152.965 5.206 73.875 68.007 8.44 147.097 6.825" />
    <path
        d="M145.877 9.902c77.415-2.295 142.02 58.626 144.272 136.041 2.25 77.416-58.707 141.987-136.124 144.196-77.354 2.204-141.863-58.692-144.113-136.046C7.662 76.738 68.524 12.195 145.877 9.903" />
    <path fill="#fefefe"
        d="M151.3 76.38c4.432-.442 10.786.487 15.241.933 6.445.645 9.526 2.077 8.612 9.047-4.026-2.229-10.091-.839-12.422 3.233.451 1.64 2.458 5.582 3.284 7.27a1638 1638 0 0 0 8 15.81c.925-.911 3.688-2.904 4.83-3.767l9.758-7.39c10.47-8.02 21.06-16.408 31.625-24.244 5.77 5.245 11.397 12.538 15.657 19.019-1.743 1.706-3.936 4.282-5.657 6.133l-15.401 16.642-58.046 62.263c-2.124 2.251-4.25 4.605-6.349 6.886-3.564-4.078-8.149-8.753-11.916-12.756l-18.32-19.597L64.843 96.28c3.561-5.655 10.488-14.684 15.67-18.933 9.49 7.026 18.848 14.492 28.268 21.632l11.685 8.89c1.762 1.341 4.843 3.54 6.397 4.961.485-1.295 1.638-3.431 2.294-4.718l4.185-8.201 5.646-11.077c1.58-3.107 3.243-6.767 5.403-9.451 1.798-2.236 4.234-2.745 6.909-3.002" />
    <path
        d="m136.352 139.932 3.863-.031-.009 3.992 3.965.066.046 7.81c1.347.006 2.76.037 4.101.003q-.018-3.92.022-7.842c1.127.04 2.728.075 3.85-.028l.009 7.904c1.267.012 2.58.043 3.843.015l-.016 3.92 4.065.014.02 7.872-7.917.012.003 7.878c-1.372-.04-2.58-.082-3.955-.009 0 2.826-.04 5.754.009 8.571-1.005-1.31-2.74-3.14-3.952-4.312.007-2.705.05-5.5-.003-8.2l-4.012-.01c-.062 1.458-.136 2.538.075 3.984-2.65-2.927-5.503-5.754-8.066-8.718l-.025-3.115c1.323.084 2.624.05 3.947.032l-.008 4.018 4.122.013c0-1.235.05-2.908-.021-4.106-1.245-.061-2.733-.022-3.996-.02l.06-3.891c1.275.017 2.639-.015 3.922-.024.097-2.547.038-5.342.029-7.91l-4.103-.013-.002 3.911c-1.144-.095-2.766-.057-3.94-.001l.008-7.838c1.385.069 2.754.011 4.066.076z" />
    <path fill="#fefefe"
        d="M148.232 155.687c1.339-.044 2.766-.005 4.052-.06a103 103 0 0 0-.022 4.15 174 174 0 0 1-3.906-.084l-.098 4.078-4.05-.012c-.011-1.318-.04-2.675-.028-3.99-1.204-.004-2.696.02-3.872-.104-1.245-.061-2.733-.022-3.996-.02l.06-3.891c1.275.017 2.639-.015 3.922-.024 1.28-.164 2.698-.074 4-.035l.007 3.972q1.963-.05 3.928-.028z" />
    <path
        d="M140.294 155.73c-.086.967-.103 2.992.014 3.935-1.245-.061-2.733-.022-3.996-.02l.06-3.891c1.275.017 2.639-.015 3.922-.024m8.038-44.234c1.325.028 2.537.055 3.867 0l.009 8.343c1.289.05 2.523.106 3.815.07l.003 4.137 4.266.02q.008-2.071-.004-4.145c1.254.033 2.648.002 3.914 0l-.008 4.129h4.115l.02-4.19c1.334.072 2.589.029 3.922-.003-.27-4.44.413-1.958 3.571-3.217l.182-.073c-.104 1.775-.054 5.566.04 7.33l-3.93.03a189 189 0 0 0-.017 3.97c-2.597-.045-5.316 0-7.922.002-.054 2.59 0 5.334.01 7.935-1.322-.014-2.611-.052-3.93.062.065-2.607.018-5.385.02-8.005l-8.016.002a129 129 0 0 1 .02-4.056 324 324 0 0 0-4.028.008v3.34c.018.224-.007.624.138.697.735.374 2.963.186 3.804.17l.003 4.067 3.826.027.003 11.589q-1.89.002-3.776.07c-.028-1.331-.006-2.722-.006-4.058l-11.919-.004v-3.786c2.382.119 5.508.03 7.946.033l.007-4.015q-4.024-.043-8.05-.006c-.038 1.258-.02 2.608-.028 3.873-2.092-.042-5.908-.09-7.906.065l.003-3.78 4.039-.003.02-4.078q1.993-.006 3.984.067l.01-4.137c1.111.135 2.807.082 3.969.08l-.002-4.227 3.992-.001z" />
    <path
        d="M115.095 109.012c1.555 1.152 3.01 2.386 4.607 3.55.066.911.069 1.995.092 2.922.704-.035 1.87-.125 2.52.02 3.197.716 4.716 3.344 7.57.098l2.276.002a510 510 0 0 0-.013 8.453l4.064.006-.002 3.828c-2.669-.026-5.38.01-8.052.02-.032 3.804-.101 8.059-.002 11.836a621 621 0 0 0-7.903.007l.002-3.811c1.312.028 2.661.021 3.977.031l.022-3.442-.05-.387c-.525-.396-3.277-.198-4.087-.171l.016 3.924c-1.296-.106-3.087-.024-4.421-.001q-.03 2.008-.004 4.016l4.428-.016.005 3.898c-1.716-.103-4.077-.055-5.83-.075-1.078-1.387-6.194-6.758-7.412-7.824 1.203.131 2.376.118 3.583.125l.06-3.91 4.578.012c-.063-7.57.194-15.596-.024-23.11" />
    <path fill="#fefefe"
        d="m124.16 119.86 4.05-.003.016 4.198-3.998-.026c.012.73.152 3.55-.17 4.018l-4.064-.014-.018-4.134c1.55-.067 2.59-.081 4.144 0-.025-1.293.024-2.735.04-4.039" />
    <path
        d="m214.566 97.792.187.014c.232.433.125 13.35.116 15.125-.56.747-1.285 1.467-1.93 2.149l-13.858-.001-.177-.031c-.24-.468-.12-14.37-.119-16.134.456-.365 1.012-.757 1.487-1.111zm-128.709-.063c4.005.374 10.23-.094 14.598.142.514.3.87.588 1.344.951.135 5.367-.038 10.88.046 16.273-4.2-.003-10.248.18-14.334-.092q-.801-.975-1.617-1.938c-.157-4.92-.023-10.369-.037-15.336" />
    <path
        d="M219.737 82.88c1.56.396 9.498 11.23 10.97 13.1-3.6 3.645-7.509 8.063-11.039 11.869l-.188.234-.158-.113c.283-5.032.097-12.087.035-17.233-2.919.023-7.58-.208-10.299.156 2.528-1.499 8.133-6.05 10.679-8.013m-139.106-.023c1.128.362 8.983 6.741 10.667 7.96-2.32-.25-7.45-.092-10.011-.073-.09 4.07.031 8.253-.013 12.33-.008.775.075 4.314-.077 4.87l-.199-.08c-3.697-3.75-7.341-8.037-11.022-11.887.511-.538 1.011-1.231 1.444-1.84 2.835-3.993 5.992-7.6 9.211-11.28m105.015 45.179q5.324.096 10.65.074c1.445.015 3.157.082 4.57-.059-1.16 1.188-2.526 2.635-3.578 3.93l-3.085.001c-.009 1.075-.053 2.325-.016 3.385-1.273 1.17-3.03 3.058-4.204 4.37l-4.524.007.005 4.05c-3.293-.234-6.25.276-9.377.199.214-1.789.115-6.099.122-8.03 4.575.025 9.318.1 13.887.029l.013-4.026-4.45-.009a175 175 0 0 1-.013-3.921m-79.308-25.596c.608.315 3.41 2.561 4.128 3.11l.012 18.245-14.547-.011c-.304-.066-3.356-3.498-4.092-4.142 4.578.17 9.87.038 14.5.032.024-5.666.1-11.586-.001-17.235m87.755.082c.349.56.147 15.333.154 17.146 4.765.013 9.798.106 14.543-.012-1.3 1.273-2.685 2.8-3.946 4.138h-14.728l.006-18.234c1.106-.746 2.999-2.176 3.971-3.038M142.14 91.675c2.023-.002 4.075.015 6.095-.008.006 2.597-.03 5.316.026 7.903l3.927-.011c0 2.59-.033 5.248-.001 7.832-1.23.002-2.638-.03-3.853.025l.01-4.007c-1.614-.03-11.142-.19-12.124.074.569-1.318 1.259-2.584 1.813-3.889.734-.006 1.572-.033 2.296-.005-.014-1.037-.037-2.08.015-3.117.09-1.798 1.186-3.214 1.795-4.797m43.284 17.435c.312.32.15 16.884.148 18.795-1.792-.041-3.73.002-5.531.01l-.01 4.028q-3.932.037-7.864.021l.022-3.928c1.36.04 2.625.018 4.006.088-.025-1.358-.004-2.773-.003-4.136 1.332.112 3.318.058 4.698.061-.044-3.772.075-7.622-.04-11.387 1.266-.91 3.477-2.538 4.574-3.552m-61.146 34.79c1.15.097 2.733.035 3.888-.013l-.004 7.915c1.29.044 2.692.003 3.99-.01-.043 2.59-.012 5.266-.015 7.861-1.055.022-2.626.289-3.336-.471-1.237-1.45-3.08-3.229-4.436-4.604-.08-.894-.084-1.963-.11-2.873-.822.015-1.69-.03-2.515-.054-.484-.428-.993-.977-1.451-1.444l-.054-2.397h4.02zm27.747-63.388.112.091c.167 1.654.066 5.191.066 6.985l3.823.016-.007 3.892c-2.43-.064-5.297-.098-7.708.052l.027-4.04c-1.32-.006-2.842-.115-4.122.068a75 75 0 0 0 2.233-4.104c.574.038 1.214.12 1.791.178l.123-2.348c1.47-.565 2.126-.65 3.662-.79m8.287 19.057 2.44-.007c1.44 2.437 2.404 5.143 4.021 7.82l-2.58.007a221 221 0 0 0-.008 4.06h-1.459l-2.467-.002.01-4.092-4.054.011q.045-1.93.03-3.86c1.145.077 2.841.029 4.027.032-.002-1.315.025-2.652.04-3.97m-19.999 11.901c1.064.17 2.832.113 3.96.111-.124 1.838-.114 6.298-.007 8.187l-3.954.047c-.023 1.323-.077 2.744-.008 4.058-1.03-.012-3.028-.094-3.98.002.005-2.721.056-5.57.012-8.28l3.987-.002c.006-1.173.072-3.002-.01-4.123m28 40.387c1.173.056 2.603.026 3.795.034l.027 3.902c1.26.019 1.952.019 3.192-.127-1.243 1.183-2.706 2.685-3.81 3.981-.806-.007-2.542-.09-3.233.114l-.103.315-.001 3.536-3.848.024.017-7.902c1.256.041 2.693.003 3.961-.001z" />
    <path
        d="M164.335 143.882c2.88.256 8.613.09 11.752.111l-.024 3.805-11.78.015zm3.977-11.796c1.014.09 2.74.031 3.807.027l.003 7.624h-4.056l-3.766.008c.044-1.229.02-2.56.023-3.798 1.178.09 2.775.025 3.986.01zm-8.029 31.674 3.929.012-.009 3.683c-1.273 1.124-2.768 3.08-3.971 4.066l-4.037-.014.067-3.772 4 .016zm4.052-52.208c1.024.085 2.767.036 3.844.039q-.023 4.125.032 8.25l-3.902-.011q.04-4.14.026-8.278m-8.086 36.273c2.446.114 5.468.028 7.957.025-.006.732.084 3.464-.195 3.823-2.59.038-5.232-.066-7.815.04.056-1.301.05-2.586.053-3.888m-53.883-19.781c1.533.172 6.254.084 8.056.097q-.004 1.91.014 3.82c-2.119 0-5.054.08-7.1-.11-.334-.332-.638-.723-.939-1.088zm53.918-47.492c1.913.063 6.068.056 7.688.821.507.676.25 1.113-.375 1.536-2.772 1.041-4.462.557-7.308.688zm-4.054 91.098c1.22.037 2.6 0 3.833-.005-.009 1.417-.038 2.859.035 4.272l-3.835-.004q-.028-2.13-.034-4.263m-16.23-60.08.086-.015c.213.387.133 3.215.135 3.889l-3.66.002-.237-.165c-.12-.948-.059-2.664-.052-3.675zm8.294-4.051 3.96.022-.017 3.907a92 92 0 0 0-3.937.017q.01-1.973-.006-3.946m-7.943.237c.378-.4 3.111-.174 3.864-.198.004.963-.04 3.043.098 3.91-1.168-.072-2.883-.114-4.046-.023q.07-1.845.083-3.689m19.893 3.756c1.255.038 2.606.025 3.87.036l.001 3.907-3.93-.008c.059-1.34.06-2.598.059-3.935M128.2 139.903l3.933.017c.006.831.08 3.155-.068 3.853a62 62 0 0 0-3.839.037c-.042-1.264-.021-2.634-.027-3.907m24.032-32.376 3.907.002c-.122.895-.068 2.911-.04 3.85-.876.099-2.909.053-3.87.058zm8.04 32.4c1.203.047 2.67.001 3.893-.004.005 1.256.04 2.624-.02 3.87-1.136-.052-2.77-.07-3.874.015zm-7.976-44.301 3.805.029c-.094 1.214-.044 2.541-.012 3.759-.825.103-2.927.069-3.85.08q.004-1.935.057-3.868m23.875 52.177 3.872-.02c.02 1.13.159 2.302-.358 3.29-1.09.827-2.037.593-3.494.57zm-42.027-40.417c.443-.965 1.51-3.08 2.077-3.903q-.04 1.944-.01 3.89c-.663-.015-1.397.007-2.067.013" />
    <path fill="#fefefe"
        d="M132.2 171.623c.528.423 5.043 5.528 5.796 6.402 3.938 4.578 8.515 9.26 12.303 13.908 1.712-2.2 5.159-5.772 7.119-7.959 3.64-4.063 7.414-8.424 11.143-12.373l26.716 37.876 10.298 14.717c1.574 2.228 3.515 5.133 5.185 7.234-10.024 7.024-15.97 10.488-27.615 14.604a91 91 0 0 1-15.47 3.93c-28.408 4.663-54.341-1.753-77.64-18.473 2.96-4.366 6.17-8.748 9.207-13.08l16.583-23.702 10.146-14.442c1.961-2.785 4.131-5.991 6.229-8.642" />
    <path
        d="M180.905 202.424c-.007-.996-.102-2.91.119-3.782.37-.214.743-.137 1.188-.116 1.267.788 9.237 12.637 10.721 14.729.136 2.74-.03 5.49.106 8.265q1.92.028 3.84-.006l.012 3.654-8.04-.007c-.046 2.505-.02 5.093-.027 7.606h-3.822l-.008-7.609-4.182.013c-.021 1.322-.039 2.457.046 3.783l-7.867-.002c.042-2.481.007-5.06.007-7.55l-3.454-.052a59 59 0 0 0-.01 3.811l-2.019-.001q.02 1.893.066 3.785l-3.814.013.007-3.804-4.084.009-.004 3.775-3.835.01-.002-3.785-3.924.014-.01-3.688 3.939.011.014-3.829 3.809-.003c-.008 1.28.013 2.586.019 3.87l8.01-.038-.005-3.843 5.296-.003-.003-3.942a235 235 0 0 0-5.38.02c.13-1.086.093-2.548.099-3.67l5.278-.002-.002-3.98c-1.86-.032-3.564-.05-5.424.009v3.832l-3.797-.006.02-7.482 4.634.004c.097-1.248.373-2.587.521-3.864 1.313-.091 2.668-.072 3.988-.076-.03 1.243.023 2.666.04 3.922z" />
    <path fill="#fefefe" d="M176.914 209.933c3.988-.053 8.06-.015 12.057-.016l-.01 11.58-12.01.008z" />
    <path
        d="M180.918 213.826c1.191.057 2.724.02 3.942.024l.008 3.779c-.841-.123-3.018-.07-3.96-.07zm-21.08-26.745 3.808-.006-.007 3.774 3.927.007-.004 3.693c-1.185.017-2.75.086-3.905.036l-.002 3.74-3.964.016-.01 3.908a84 84 0 0 0-3.977.025l.009 3.805c-1.283-.028-2.378-.047-3.664.019l-.011-3.904c-.913.034-3.213.083-4.11 0-.06 2.487-.135 5.388-.033 7.865l7.815.004.003 3.665-3.807-.018c-.034 2.562-.087 5.177-.016 7.735a90 90 0 0 0-7.771.054q.07-1.923.05-3.845l3.896.017-.002-3.994q-1.964.001-3.927.04c-.015 1.196-.074 2.678-.029 3.853-1.102-.004-2.733-.06-3.795.015l-.002-3.867-3.932-.012-.002-3.785-4.127.001c-.021 1.09-.1 2.773.005 3.81-1.213-.007-2.536-.042-3.74-.01.046-1.295.02-2.51-.004-3.803l-7.955-.004v-3.801q5.928.051 11.857.009c-.01-2.473.04-5.2-.042-7.651l3.851.014.008 3.911 3.97.033-.006 7.634 3.944.006.012-7.851c-1.266-.009-2.574-.047-3.83.072l.018-7.596c.708-.01 3.084-.111 3.668.135.035.166.075.245.05.397l.05 3.243 3.973.018c.01-1 .062-1.946-.133-2.927a35 35 0 0 0 2.335 2.581c.622-.706 1.16-1.31 1.72-2.07-.063.818-.13 1.562-.118 2.385l3.982.022.01-3.784 3.945.013zm-15.686 38.196c2.556.044 5.181.022 7.745.03-.147 3.532-.075 7.678-.1 11.265l-3.868-.004a45 45 0 0 0-.047 3.855l-2.68.01c-.405.04-.465.086-.84-.042-.479-.706-.24-2.887-.228-3.826l-3.915-.004c-.023 1.312-.02 2.642-.028 3.958l3.827.005.022 3.77c-1.086-.132-2.7-.083-3.834-.081l-.008 2.547c-1.668-.234-11.106-1.532-11.725-2.15.512-.443 2.994-.161 3.817-.119q.09-1.985.104-3.971l3.974.009-.026-3.967-3.944.022.015-3.804-3.823-.003c-.008-2.133.078-5.454-.095-7.49l3.764.005c-.078 1.303-.045 2.47-.016 3.77 1.321.013 2.663-.004 3.986-.009v3.864l4.097.01v-3.864l3.698.006.062 3.854 3.967.014c-.023-1.31.002-2.68.005-3.995l-3.913.035zm-36.796-11.442c1.713.092 4.17.015 5.928.013l11.09.005v26.55c-3.161.016-7.126.227-10.24-.264-1.149-.18-3.24-1.28-4.35-1.822-1.354-.677-2.394-1.173-3.835-1.626q7.311.045 14.623.012l.007-19.146c-5.177-.004-10.714-.111-15.861.026.773-.889 2.042-2.742 2.638-3.748" />
    <path
        d="M104.621 221.495c3.093.197 8.545.005 11.845-.008l-.006 11.281-11.842-.006c.054-3.614.063-7.664.003-11.267M132.2 178.37c.234.91.046 7.277.062 8.68l4.09.016.032-4.621c.868 1.115 2.754 3.001 3.795 4.098.068 2.623.018 5.438.018 8.075-.411.019-1.06-.02-1.49-.031l-6.306.054-.005-3.932q-1.957-.006-3.916.018.016-1.972-.027-3.94c-.767 0-1.499.115-2.26.212 1.852-2.385 4.36-6.064 6.007-8.63m39.313 54.551c1.632.14 5.846.036 7.582.01-.085 1.259-.038 2.522-.013 3.783l5.777-.01.001 3.769c-1.752-.183-5.874-.06-7.797-.059l-1.74.038a76 76 0 0 1-.107 3.743c-1.904.353-5.265-.012-7.512.123l.003-3.794 3.807.006zm-3.667-54.883c.942.47 1.702 2.153 2.392 2.937 3.223 3.664 2.571 5.272 2.701 9.72l-4.372.018-.612-.029c-.463-.498-.25-2.949-.24-3.78-1.3-.024-2.648.002-3.951.011l.033-3.72c1.18.062 2.728.023 3.936.026-.003-1.776-.02-3.409.113-5.183m29.18 47.262 3.94.01.003 3.775c1.269-.037 2.398-.195 3.48.454.534.901-.47 1.534-1.189 1.983-1.227.768-2.505 1.51-3.751 2.248-.892.51-1.64.947-2.492 1.519l.016-2.508-3.999-.01.028-3.718q1.98-.043 3.96-.002zm-41.176 15.217 7.782.016.006 3.72c-1.256-.029-2.681.02-3.95.034.003.853.015 1.673-.042 2.524-2.574.14-5.023.459-7.642.486.025-1.007 0-1.897-.035-2.904l3.867.057zm-27.24-22.87c2.31.112 5.261.025 7.62.022v7.486l-3.833.01.006-3.844-3.81.028zm-8.051-19.185c2.395.106 5.379.024 7.819.025-.004 1.253-.034 2.52.081 3.766a209 209 0 0 0-7.91.014zm43.221 34.461 3.766.03q-.012 3.739.019 7.482c-1.3-.018-2.498-.038-3.801.035zm-40.2-42.107c1.163.102 3.555.045 4.813.048-.017 1.304-.029 2.454.042 3.76l-2.396-.04q-2.602.024-5.206.013c.774-.91 2.178-2.745 2.746-3.781m-23.142 32.848c.108.127.032 8.712.06 9.794-.673-.452-1.44-.91-2.133-1.342l-1.511-.859v-2.305c1.032-1.75 2.441-3.532 3.584-5.288m76.581-32.871c.378.325 3.41 4.782 3.779 5.402q.011 1.083.034 2.165l-3.854-.015zm-63.052 15.376c.604-.053 1.767-.032 2.413-.04-.01 1.263-.039 2.521.046 3.781l-3.525.009-2.769.018c.853-1.064 1.391-2.24 2.313-3.225.588-.628.7-.5 1.522-.543m41.88-.053 3.844.01q-.007 1.894.009 3.79l-3.841.006zm-19.481 19.089 3.835.044-.007 3.691-3.83.018zm23.451 3.838c1.097.071 2.685.021 3.819.019l.011 3.729-3.821-.025zm-11.761 11.478 3.804.018c-.037 1.17.003 2.512.009 3.695-1.292-.014-2.577-.06-3.862.082.04-1.242.034-2.547.049-3.795m3.849-3.848c1.181.06 2.605.017 3.805.013l-.003 3.749c-1.313-.02-2.477-.038-3.793.036zm11.877-22.819c1.225.03 2.564-.002 3.797-.008l-.023 3.72-3.784-.015zM116.5 202.414l3.888.008-.009 3.569c-1.358.003-2.527.01-3.887.1.032-1.193.008-2.476.008-3.677m27.619 19.085c-.12 1.178-.079 2.467-.07 3.658l-3.76.006.013-3.67c1.069.092 2.74.068 3.817.006m-15.522 15.191c1.159.039 2.487.01 3.66.013a54 54 0 0 0-.044 3.63c-.51.14-2.964.076-3.638.071zm-.118-42.008 3.793.018c-.07 1.195-.11 2.44-.02 3.633l-3.755.017c.025-1.2.081-2.478-.018-3.668m15.671 49.668c.899.122 2.721.088 3.692.099q.004 1.416.028 2.831l-3.72-.17c.024-.896.003-1.857 0-2.76m44.825-7.66c1.05.032 2.839-.147 3.766.178l.11.232c-.2.42-.573.54-1 .772q-1.466.635-2.895 1.353zm-68.631-41.33c.242.304.067 2.362.062 2.989-.603-.022-1.24.001-1.845.013l-.06-.053c.031-.308 1.483-2.344 1.843-2.949" />
    <path fill="#fefefe"
        d="M103.279 144.828c.643.304 14.87 17.172 16.63 19.148-4.904 6.725-10.338 13.565-15.433 20.19l-27.455 35.647-1.043-1.088c-7.496-8.173-13.01-16.065-17.589-26.283 2.664-2.505 6.693-7.125 9.365-9.955l24.967-26.609c3.132-3.297 7.381-8.046 10.558-11.05" />
    <path
        d="M102.823 150c1.267 1.673 3.033 3.636 4.44 5.27 1.652 1.92 3.47 4.147 5.173 5.998-2.28 1.905-7.8 7.123-9.453 9.404.747-.574 1.514-1.128 2.176-1.797.907.788 1.503 1.394 2.188 2.412-.586.484-1.009.853-1.656 1.261.405.578.829 1.21 1.252 1.768-1.146 1.53-3.18 4.081-4.196 5.628-.49-.608-1.076-1.598-1.943-1.596-.112.786.943 1.604 1.479 2.113-.496.602-1.089 1.29-1.554 1.9a43 43 0 0 0-2.096-2.023c-.903.768-1.245 1.106-2.024 2.001l2.59 2.409c-.965 1.113-2.567 3.058-3.394 4.284-.331-.394-.712-.87-1.068-1.23.838-.79 1.274-1.31 2.01-2.208-.581-.583-1.176-1.197-1.773-1.758-.633.642-1.59 1.562-2.138 2.233a53 53 0 0 0-1.918-1.945c-.798 1.27-2.412 2.976-2.186 4.401.939 1.342 2.116-.022 2.296.091 1.075.673 2.077 1.956 3.112 2.745-1.257 1.514-8.604 11.231-9.363 11.636.36-.783.731-1.112 1.306-1.748-.779-.677-1.288-1.11-2.134-1.696l-3.16 3.189c.775.883 1.57 1.82 2.38 2.666-.91 1.101-2.355 2.98-3.112 4.19a45 45 0 0 0-1.908-2.12l-1.361 1.66c.37.604.716 1.199 1.141 1.766-1.03.524-1.343.879-2.045 1.803-1.26-1.882-2.83-3.637-4.145-5.575.096-.752.106-1.483.501-2.1.224-.138.304-.26.518-.204.784.205 2.245 2.277 2.82 2.986.456-.763.722-1.179 1.265-1.898-.59-.77-.85-1.126-1.56-1.793.821-.66 1.11-.935 1.782-1.794.64.814.95 1.157 1.697 1.875.543-.528 1.058-1.05 1.645-1.528l-1.797-1.773c.6-.586 1.215-1.17 1.793-1.777-.631-.553-1.225-1.056-1.807-1.664a252 252 0 0 0-4.588 4.476c-1.226-1.26-2.366-2.47-3.71-3.607 1.303-1.088 3.642-3.438 4.808-4.77-1.01-.959-3.051-2.689-3.53-3.881.011-1.638 3.754-4.388 2.759-5.76l-.302-.032c-.406.34-.655.608-1.021.993-.634-.683-.972-1.042-1.693-1.64 1.278-1.205 3.324-3.541 4.525-4.915.837 1.194 2.426 2.799 3.457 3.906.704-.634 1.398-1.14 1.945-1.892l-.35-.213c-1.218-1.044-2.22-2.399-3.517-3.537 2.237-2.397 5.505-5.383 7.486-7.754.687.71 1.385 1.45 2.084 2.143 2.975-1.078 1.171-2.564-.29-4.086.873-.781 3.675-3.645 4.388-4.575.654.842 1.034 1.295 1.889 1.994a70 70 0 0 0-3.393 3.373c.885 1.006 1.96 2.168 2.74 3.233-.313.432-.582.93-1.062 1.091-.458-.241-.812-.57-1.255-.372-.965.432-2.303 1.967-3.041 2.737a40 40 0 0 0-1.9-2.174 63 63 0 0 0-2.394 2.456c1.336.848 2.013 1.86 3.378 1.576.56.31.914.683 1.385 1.115 1.306-1.194 3.406-3.532 4.77-4.703-.005.004 1.55-.033 1.86-.072q2.635 2.559 5.23 5.156c.723-.937 2.27-2.701 2.812-3.526l-1.33-2.002a50 50 0 0 1 1.951-1.86l-6.166-6.25c-1.08-1.111-2.56-2.762-3.649-3.754 1.052-.794 9.29-9.393 9.951-10.336" />
    <path fill="#fefefe"
        d="M80.896 180.127c.87-.521 1.375-.829 2.04.145.027.605.111.35-.18.81-.782.219-1.029-.162-1.51-.742zm21.928-26.957c.507.195 6.554 6.49 7.432 7.368-2.034 2.146-4.873 4.97-7.04 6.957-.07.025-.273.02-.36.023-2.039-1.802-5.104-5.098-7.105-7.141 2.325-2.208 4.79-4.891 7.073-7.207" />
    <path
        d="M102.808 156.256c.645.456 3.29 3.324 4.345 4.199-1.283 1.237-2.896 2.78-4.056 4.101-.534-.242-3.56-3.508-4.251-4.236 1.23-1.125 2.868-2.823 3.962-4.064" />
    <path fill="#fefefe"
        d="m82.815 183.675.108.038c1.846 1.787 2.472 1.663 3.55 4.055-.11 1.04-.617 3.834.459 4.304 1.104-.273 1.64-1.3 2.335-2.241.748.549 1.423 1.233 2.1 1.875a45 45 0 0 1-3.39 3.461l-1.592-1.813c-.326.481-.618.878-.866 1.41.058.788.403 1.02.926 1.732-.157.47-.454.855-.728 1.28-1.13-1.361-2.397-2.506-3.523-3.89-.569.552-1.138 1.167-1.688 1.741-.762-.82-2.383-2.215-3.278-3.066.567-.494 1.266-1.222 1.816-1.765-.562-.511-1.118-1.112-1.65-1.66 1.874-1.825 3.413-3.719 5.42-5.46" />
    <path
        d="M82.321 188.002c.47.144 1.554 1.31 1.98 1.729l-1.528 1.478-.134.083c-.605-.131-1.368-1.186-1.837-1.732.739-.61.927-.755 1.52-1.558" />
    <path fill="#fefefe"
        d="M84.602 176.593c.604.4 1.479 1.933 2.218 2.717 1.032 1.094 1.939 2.05 3.036 3.11a46 46 0 0 1-2.302 2.163l-.248.141c-.81-.218-2.322-2.805-3.058-3.617l1.128-1.158c-.674-.8-1.19-1.41-1.935-2.14.424-.342.798-.805 1.16-1.216m9.949.014c.527.166 1.434 1.207 1.868 1.651-1.152 1.137-2.373 2.466-3.513 3.64l-1.32-1.236c-.757-.816-1.083-1.204-1.72-2.114.596-.528.984-1.028 1.49-1.634.53.578 1.028 1.171 1.536 1.77q.814-1.05 1.66-2.077m-17.345 6.255c.511.292.774.851 1.094 1.366l-.99 1.032-.298.107-.24-.193c-.211-.903.013-1.51.434-2.312" />
    <path
        d="M69.406 185.089c.424.27 1.412 1.207 1.83 1.583a64 64 0 0 0-3.943 4.174c.835.691 1.171.965 2.102 1.513-.83.702-1.793 1.733-2.574 2.524a35 35 0 0 0 1.826 1.705c-.59.562-1.153 1.178-1.769 1.764 1.463 1.32 2.503 2.384 3.734 3.921-.487.41-.852.79-1.293 1.24-1.21-1.082-5.502-9.486-6.338-11.466l1.948 1.394c.639-.583.933-.921 1.477-1.567-.635-.743-.983-1.068-1.7-1.715 1.199-.99 3.923-3.824 4.7-5.07M94.52 166.06c.737.329 4.931 4.98 6.06 5.929-.542.495-1.097 1.065-1.624 1.582l-.27-.005c-1.225-1.278-4.782-4.96-5.856-5.897.805-.636 1.012-.828 1.69-1.608m18.121-4.246c.437.188 1.779 1.94 2.186 2.43-1.095 1.153-2.533 3.28-3.781 4.7l-.113.06-.225-.07c-.674-1.096.174-1.77.87-2.627l-1.541-1.734z" />
    <path fill="#fefefe"
        d="m197.429 144.689 28.926 30.839c5.34 5.685 10.79 11.28 15.999 17.083-5.125 10.384-9.67 17.57-17.6 26.14-.347.356-.71.776-1.046 1.15-1.282-1.925-3.574-4.704-5.05-6.615l-9.531-12.374-28.332-36.874c5.524-5.955 11.097-13.158 16.634-19.35" />
    <path
        d="M188.28 161.336c1.206-1.185 3.37-3.915 4.532-5.295 1.36-1.616 3.764-4.235 4.918-5.88 2.338 2.263 4.53 4.76 6.824 7.072.927.935 2.125 2.324 3.145 3.093-3.091 3.134-6.783 7.176-9.903 10.103.897.624 1.24 1.012 1.994 1.8l-1.352 2.004c1.282 1.226 2.145 2.039 2.687 3.705.905-.913 1.923-1.842 2.784-2.794.579-.642 3.64-3.603 4.594-2.616 1.528 1.583 3.022 3.239 4.623 4.796q.279-.279.577-.535c.552-.473.819-.658 1.575-.602l.14.243c-.351 1.839-3.522 4.635-4.892 5.923.702.462 2.005 1.709 2.68 2.32 1.272-.971 1.168-1.302 2.041-2.419 1.44-1.84.242-1.401.163-2.497.35-.734 1.009-1.323 1.583-1.924-.61-.59-1.096-.824-1.003-1.712.382-.603 1.292-1.072 1.933-1.48-.745-.745-1.697-2.23-2.771-2.18l-.49.544c-.386.575-.821 1.121-1.524.862-.917-1.153.09-2.428.887-3.267.534-.504 1.326-1.208 1.782-1.75 1.924 2.477 5.195 5.138 7.362 7.725-.817.717-3.154 2.939-3.78 3.793l.028.08c.865.564 1.131.944 1.786 1.72.986-1.337 2.413-2.5 3.536-3.834 1.037 1.335 3.279 3.76 4.49 4.966-.574.475-1.093.996-1.629 1.515-.391-.391-.794-.84-1.175-1.247-.342.41-.821.83-1.217 1.2l.248.214c2.455 2.127 5.17 4.522 1.87 6.765-.435.294-1.487 1.442-1.914 1.864 1.451 1.33 3.402 3.561 4.867 4.682a146 146 0 0 0-3.726 3.643c-1.423-1.515-3.101-3.022-4.597-4.518a38 38 0 0 0-1.717 1.748c.525.606 1.125 1.151 1.707 1.707-.684.546-1.22 1.111-1.834 1.734l1.683 1.622a34 34 0 0 0 1.734-1.905c.551.762 1.004 1.163 1.682 1.812-.479.538-.816 1.106-1.207 1.711.555.973.546 1.279.628 2.367.983-1.267 2.39-2.69 3.513-3.873 1.584 3.621-.778 4.903-2.94 7.773-.42-.643-1.122-1.371-1.851-1.727-.38-.185-.698.143-1.084.39.322-.496 1.185-1.246 1.649-1.68l-1.541-1.81a29 29 0 0 0-1.723 2.137c-.674-1.147-2.258-3.16-3.196-4.065l2.377-2.62a32 32 0 0 1-3.325-3.598c-.764.744-1.3 1.389-1.99 2.208.438.375 1.245.944 1.252 1.533-.69-.534-2.398-2.94-3.013-3.71-2.044-2.556-4.102-5.496-6.246-7.941.936-.693 2.064-2.208 2.945-2.723.449-.262 1.358-.13 2.425-.768-.497-1.25-.892-1.89-1.576-3.033-.144-.24.019-.452.146-.808l-.293-.05c-.926.444-1.762 1.452-2.42 2.229-.73-.898-1.298-1.407-2.153-2.2-.662.581-1.17 1.113-1.778 1.746.74.839 1.302 1.44 2.106 2.217l-1.088 1.147c-.575-.987-2.527-3.486-3.326-4.337l2.454-2.37c-.615-.681-1.342-1.387-1.994-2.047-.657.733-1.359 1.439-2.047 2.145a36 36 0 0 1-1.58-2.16c-.092-.247-.071-.152-.35-.358-1.607-2.064-3.276-4.081-4.596-6.34-.38-.649-.705-1.022-1.267-1.52.977-1.284 1.878-1.97 3.129-2.989.867.799 1.81 1.51 2.816 2.124-1.218-1.983-7.674-8.166-9.786-9.8" />
    <path fill="#c1bfc0"
        d="M214.025 170.6c1.045 1.379.085 1.487.636 2.405-.385.575-.82 1.121-1.523.862-.917-1.153.09-2.428.887-3.267" />
    <path fill="#fefefe"
        d="M219.417 180.448c-.44.239-.536.432-.883.822-.586.101-.32.145-.833-.113-.286-.534-.211-.25-.185-.889.706-.978 1.201-.485 1.874.1zm-21.432-.588c.534-.767.734-1.186 1.574-1.537l.26.077c-.003.813-.876 1.386-1.484 1.82-.092-.248-.071-.153-.35-.36m-.345-26.694c.479.158 6.334 6.336 7.224 7.245l-7.179 7.14c-.479-.116-6.41-6.223-7.258-7.077 2.207-2.4 4.897-4.928 7.213-7.308" />
    <path
        d="M197.654 156.226c1.415 1.315 2.732 2.805 4.13 4.054-1.322 1.41-2.795 2.842-4.152 4.254-1.157-1.304-2.922-2.937-4.195-4.176 1.055-.768 3.32-3.103 4.217-4.132" />
    <path fill="#fefefe"
        d="M217.67 183.798c1.56.969 4.034 3.903 5.4 5.35q-.807.836-1.627 1.66c.544.597 1.105 1.157 1.672 1.731L220 195.59l-1.712-1.771c-.7.828-2.69 3.454-3.639 3.502-.351-.268-.325-.25-.465-.674 1.144-1.82 1.246-1.7-.118-3.4-.508.61-1.09 1.249-1.617 1.85l-3.237-3.431c.666-.677 1.292-1.215 2.008-1.836.665.923 1.174 1.897 2.24 2.225 1.175-.378.434-3.277.864-4.775.696-2.422 1.655-1.692 3.346-3.48" />
    <path
        d="M217.887 188.043c.474.132 1.393 1.16 1.853 1.604l-1.736 1.713c-.401-.119-1.44-1.34-1.799-1.721.694-.545 1.081-.966 1.682-1.596" />
    <path fill="#fefefe"
        d="M205.932 176.625c.548.38 1.373 1.389 1.796 1.915l1.458-1.588c1.258 1.692 1.284 2.392-.245 3.833l-1.13.946c-1.14-.974-2.493-2.42-3.59-3.5.528-.545 1.149-1.09 1.711-1.606" />
    <path
        d="M231.006 185.125c.74.504 3.2 3.969 4.815 5.003-.621.488-1.254 1.186-1.814 1.76l1.685 1.709c.442-.454.946-1.143 1.608-1.045.362 1.33-4.547 8.9-5.675 10.557-.058.16-.15.236-.269.381-.391-.12-1.084-.99-1.436-1.358 1.26-1.237 2.44-2.505 3.648-3.792-.611-.55-1.065-1.1-1.603-1.718.58-.441 1.348-1.162 1.915-1.664-.894-.88-1.771-1.777-2.745-2.565l2.094-1.476c-1.325-1.409-2.551-2.887-3.917-4.296.576-.39 1.178-1.008 1.694-1.496m-21.556-22.738c1.196 1.049 3.326 3.414 4.589 4.65-2.66 2.065-1.607 3.565-4.616 5.11-.4-.135-.832-.94-1.096-1.342a229 229 0 0 1 2.688-3.145c-.892-.975-2.389-2.492-3.384-3.33a7.6 7.6 0 0 0 1.818-1.943m-3.579 3.675c.275.126 1.483 1.288 1.817 1.59-1.27 1.307-4.972 4.794-5.846 6.081l-1.943-1.72c1.205-.843 4.963-4.785 5.971-5.951m-17.995-4.241c.793.639 2.01 1.998 2.752 2.782-.754.68-1.567 1.503-2.306 2.218l-.055.047c-.25-.03-1.927-2.155-2.37-2.643.725-.803 1.31-1.55 1.979-2.404" />
    <path fill="#fefefe"
        d="M215.76 123.16c3.592 2.945 7.43 6.527 10.955 9.626l24.643 21.55c-.512 11.752-3.104 25.498-8.216 36.171-1.36-1.511-2.966-3.121-4.381-4.605a4896 4896 0 0 1-40.102-42.71c5.608-6.812 11.382-13.342 17.1-20.031" />
    <path
        d="M228.668 138.518c.374.205 1.978 1.79 2.39 2.188-.7.632-.902.901-1.457 1.627.554.631 1.3 1.324 1.913 1.923.536-.483 1.055-1.12 1.534-1.67.833.859 4.509 4.146 5.421 4.767-.977.916-2.894 3.173-3.666 4.286-.775-.946-2.635-2.294-3.67-3.092.784-.648 1.524-1.562 2.198-2.342-.629-.615-1.29-1.145-1.965-1.707-1.142 1.12-3.275 3.932-4.645 5.41-.571-.596-1.47-1.206-2.152-1.708a12 12 0 0 0-.66 1.2c.07 1.349 1.919 1.751 2.478 3.256-.06.521.047.312-.303.665-1.053-.19-5.487-4.075-6.53-5.001-1.185.704-2.105.91-3.022 1.996-.015.733.473.201.693 1.086-.185.508-1.232 1.476-1.673 1.925.447.53 1.046 1.08 1.548 1.568.535-.546 1.144-1.355 1.874-1.366l.029.282c-.334.721-.95 1.184-1.547 1.736.646.693 1.36 1.388 2.032 2.06.592-.797 1.507-1.657 2.226-2.373.542.67 1.432 1.415 2.092 2.008 1.987-1.317 2.301-2.54 3.656-4.343.399-.53 1.402-1.398 1.928-1.859.671.76 1.168 1.08 1.992 1.603-.742.603-.937.834-1.548 1.554.782 1.003 1.468 1.548 2.45 2.33.75-.756 1.07-1.54 1.904-2.225 1.035.046-.116.334.997.488.55-.268.863-.795 1.25-1.296 1.007.97 1.921 1.895 3.052 2.73-1.095 1.031-2.61 2.583-3.56 3.715-.518-.656-.976-1.337-1.75-1.619-.564.08-.291-.023-.779.48-1.279 1.31-.936 1.43-1.523 3.052-.575-.066-2.924-2.394-3.64-2.991.657-.614 1.356-1.425 1.968-2.102-.483-.441-.996-.988-1.459-1.46-1.92 1.873-2.251 2.645-2.563 5.213l.81.848c-.854.668-1.477 1.346-2.133 2.197.9.878 1.452 1.279 2.474 2.02-.876.715-1.28 1.021-2 1.882-1.309-1.208-2.542-2.663-3.867-3.77 1.319-1.304 2.514-2.474 3.9-3.703-.615-.78-1.387-1.436-2.123-2.108l-1.566 1.916c-.476-.621-1.396-1.399-2.007-1.953-.643.586-1.221 1.22-1.82 1.853-2.288-2.7-5.001-5.238-7.367-7.964l1.62-1.773c-.5-.657-.813-.972-1.386-1.542.77-.688 1.042-.917 1.673-1.745.463.501 1.157 1.301 1.727 1.685.366.246.645.009 1.068-.177.472.022.577.093.982.304l.225-.16.012-.295-.341-.248-.044-.332c.297-.689.94-1.21 1.494-1.75.577.698 1.195 1.193 1.878 1.786l1.589-1.393a76 76 0 0 1-2.241-2.779c-.692.627-.976.955-1.572 1.66-.453-.46-.968-.92-1.443-1.363.551-.577.971-1.135 1.46-1.76 1.01.879 1.301 1.62 2.462.551 1.265.525 3.903 3.246 5.127 4.176.821.624 1.378.923 2.295 1.434.96-.464 1.293-.745 2.062-1.416-.874-.742-1.221-1.041-2.207-1.605.741-.783 1.478-1.663 2.187-2.483a69 69 0 0 0-2.231-1.883c.773-.739 1.186-1.242 1.79-2.104m16.447 15.396c.475.35 1.675 1.503 2.168 1.951q-.225 1.578-.43 3.157c-2.334 2.12-4.807 4.964-7.41 7.35.99.61 4.373 3.377 5.687 4.351-.063.526-.106 1.05-.262 1.556-.848-.298-.41-1.14-1.193-2.026-1.472-.561-1.154 1.324-4.044-.82-.57.493-.954.906-1.468 1.45.002.77-.249 1.992.441 2.395.605-.075.946-.396 1.456-.752 1.033 1.155 3.15 2.997 3.46 4.39-.249 1.139-.88.655-1.828 1.084-.378.172-1.056.72-1.406.992a35 35 0 0 0 2.091 1.963 39 39 0 0 0-1.101 3.129c-.825-1.14-2.375-2.667-3.384-3.716l.188-.183c.707-.686 2.151-2.983 2.894-3.97-.807-.48-1.094-1.097-1.85-1.332-.561.11-.426.138-.91.665-.67.79-1.362 2.113-2.184 3.148-1.15-1.2-2.449-2.65-3.676-3.732.823-.552 1.513-1.251 2.236-1.932-1.2-1.201-2.18-2.066-3.463-3.169.737-.704 1.56-1.632 2.268-2.39-1.039-.834-1.891-1.61-2.86-2.52.59-.49 1.187-1.134 1.73-1.687.657 1.003 1.91 2.127 2.815 2.922-.59.437-.963.628-1.098 1.34.184 1.097 1.209 1.634 2.15 2.375.8-1.357 1.606-2.517 2.744-3.605-1.368-1.311-3.123-3.076-4.54-4.26.717-.622.887-.813 1.479-1.54l1.286 1.64c.876-.882 1.431-1.232 2.263-2.265q.965.888 1.909 1.797a268 268 0 0 1 3.665-3.962c-.678-.681-1.08-1.005-1.828-1.594.807-.732 1.375-1.315 2.005-2.2m-26.59-24.064c.718.444 2.533 2.12 3.302 2.777-.535.494-1.08 1.15-1.567 1.702.5.488 1.27 1.11 1.374 1.77l-.196.258c-.654.22-1.558.038-2.28-.039l-1.062 1.076c-.508-.464-1.36-1.448-1.794-1.708l-.31.107c-.508.721-.843 1.042-1.454 1.657.608.484 1.33 1.15 1.926 1.673-.703.658-2.103 2.029-2.29 2.955.471 1.268-.185 1.338-1.24 1.948-1.002-.456-1.519-.983-2.298-1.721 1.346-1.331 2.2-3.08 3.84-4.563-.796-.494-1.343-.771-1.995-1.468.437-1.257 1.436-1.829 1.388-2.78-.279-.49-.667-.645-1.16-.94.525-.62 1.196-1.822 2.034-1.73.394.822-.138 2.433-.36 3.32.836-.96 1.632-2.767 2.078-3.196.463.2.513.272 1.013.202.527-.34.716-.761 1.051-1.3" />
    <path
        d="M210.16 135.446c.315.244.845.898 1.465 1.387-1.15 1.686-2.712 3.92-4 5.473.828.769 1.643 1.362 2.459 2.132.377 1.226-1.168 1.374-1.487 2.533.359 1.169.354 1.399-.752 2.184-1.39-1.69-3.25-3.707-4.76-5.311 1.03-.837 6.174-7.092 7.075-8.398m30.341 13.785 3.019 2.766c-.759.675-1.503 1.428-2.23 2.141.71.52 1.26 1.089 1.892 1.698-.536.69-1.11 1.217-1.732 1.828-.359.018-1.323-1.022-1.841-1.42.552-.541 1.192-1.278 1.724-1.864-.867-.908-2.042-1.944-2.975-2.824a21.6 21.6 0 0 0 2.143-2.325m-20.698-10.967c.896.128 2.012 1.432 2.679 2.09l1.777-2.07c.48.408 2.18 1.77 2.304 2.273a31 31 0 0 0-1.884 2.314c-1.074-.99-4.687-3.596-4.876-4.607m8.953 29.416c.376.319 1.913 1.908 2.408 2.38-.78.71-1.128.918-1.727 1.81l-2.436-2.432c.896-.723 1.047-.893 1.755-1.757m-5.183-33.279c.699.08 1.746 1.216 2.294 1.73-.804.724-1.034 1.063-1.677 1.929-.466-.328-1.598-1.334-2.21-1.797.764-.744.977-.991 1.593-1.862m22.784 28.474c.279.39-.47 4.147-.59 4.906l-.186.02-.75-.69c-.473-.492-.968-.862-1.501-1.289 1.088-.858 2.18-1.847 3.027-2.947" />
    <path fill="#fefefe"
        d="M84.983 123.195c.741.569 3.221 3.687 4.005 4.595l13.025 15.332c-1.323 1.711-3.104 3.446-4.606 5.051l-9.173 9.715c-8.713 9.274-17.483 18.863-26.31 28.01-1.475 1.577-2.91 3.123-4.45 4.639-.962-2.577-2.035-4.965-2.911-7.62-2.907-8.81-5.075-19.282-5.213-28.568l19.993-17.547c5.13-4.531 10.362-9.267 15.64-13.607" />
    <path
        d="M90.387 135.448c.789.412 5.768 7.185 7.224 8.416-1.155 1.112-4.14 4.586-5.085 5.153-.582-.354-.644-.438-1.126-.939.061-.398.544-.767.88-1.116-.649-.63-1.492-1.62-2.118-2.314-.662.567-1.264 1.191-1.88 1.807.373.524 1.335 1.525 1.813 2.046l-1.523 1.227q.901 1.003 1.845 1.965c-1.576 1.478-6.402 6.386-7.593 7.972-.676-.713-1.163-1.143-1.912-1.784-.866.759-1.317 1.153-2.056 2.024-.433-.638-1.078-1.381-1.575-1.992-.805.744-1.275 1.157-1.95 2.023 1.008 1.091 2.661 2.94 3.816 3.763-.8.582-3.022 2.972-3.814 3.79a48 48 0 0 0-2.118-1.913c1.047-.686 1.634-1.174 2.541-2.014-.404-.434-2.03-1.938-2.104-2.362 1.5-1.8-.562-4.337-1.753-5.798-.548.579-.941.878-1.557 1.371q.983 1.114 1.992 2.205c-.753.56-2.99 2.745-3.548 2.767-1.177-2.273-.331-1.545-2.376-3.614a21 21 0 0 0-1.747 1.818c-.855-1.059-2.587-2.79-3.577-3.691 1.296-.926 1.93-1.628 3.034-2.773.378.517.592.886 1.12 1.263.894.058.023-.141.954-.42.393.258 1.474 1.685 1.935 2.2 1.127-.635 1.664-1.296 2.507-2.248-.575-.73-.815-1.094-1.585-1.648.964-.602 1.436-.962 2.208-1.768.432.561 1.08 1.128 1.482 1.683 1.074 1.483 2.05 2.82 3.22 4.24.698-.645 1.472-1.88 1.996-2.04 1.076.354 2.549 1.99 3.231 2.897q.99-.975 1.957-1.968c-1.84-1.87-2.265-1.657-4.303-3.11-.612.607-1.219 1.388-2.064 1.45-.96-.443-1.435-.594-2.482-.4l-.103-.06c.006-.39.432-.833.707-1.215 1.382-.596 1.718-.958 2.737-2a111 111 0 0 1-1.65-1.749 27 27 0 0 0-1.914 1.704c-1.642-1.884-3.234-3.917-4.853-5.845-.906.692-1.165.936-1.934 1.78.723.91 1.234 1.554 2.101 2.319-.99.691-2.682 2.24-3.615 3.082-.66-.94-2.81-3.322-3.645-4.209 1.53-1.17 3.961-3.439 5.487-4.758.482.72.79 1.052 1.363 1.68l2.04-1.949c-.59-.766-.794-.996-1.499-1.655.831-.764 1.596-1.421 2.3-2.306.514.716 1.26 1.536 1.85 2.216-.724.517-1.493 1.2-2.183 1.784.69.873 1.395 1.688 2.122 2.531-.74.444-1.463 1.052-2.147 1.589 1.673 1.763 2.614 1.356 4.467-.066 1.289-.99 2.596-2.442 3.798-3.458 2.157-1.821.893 1.64 3.694-1.185.46.615 1.044 1.212 1.568 1.78-.66.458-.897.633-1.465 1.194a31 31 0 0 0-1.713-1.514c-.909 1.303-3.271 3.083-4.602 4.384.574.66 1.492 1.353 1.995 2.017 1.553 2.046 2.46 3.284 4.355 5.071l1.413-1.473a68 68 0 0 0-1.845-1.85l1.289-1.118c-.983-.986-2.04-2.093-3.081-2.999.776-.567.967-.764 1.614-1.453 1.005.958 2.063 1.92 2.95 2.984.741-.662 1.395-1.328 2.093-2.033-.925-1.064-1.847-2.168-2.865-3.14.534-.522 1.102-1.128 1.627-1.668-.742-1.019-1.63-2.102-2.537-2.976.693-.536 1.252-.836 2.006-1.264.883.904 3.414 3.667 3.556 4.758.084.644.144.966.695 1.399.821.048 1.85-1.048 2.503-1.616-1.18-1.374-2.967-3.978-4.063-5.49.701-.503.977-.655 1.475-1.39" />
    <path
        d="M59.92 149.361c.453.126 1.932 1.812 2.404 2.299-1.035.87-2.1 1.724-3.023 2.708.574.799.983 1.17 1.688 1.855-.824.693-1.035.874-1.696 1.724-.496-.668-1.102-1.256-1.682-1.858-.703.504-1.317 1.035-1.977 1.59.986.906 2.705 2.928 3.654 3.996l1.875-1.822c.573.701 1.59 1.71 2.233 2.387.537-.643.865-1.115 1.329-1.797l.17.233c.518.72.579.75 1.296 1.337-1.264.98-3.163 2.925-4.338 4.078.776 1.144 1.94 2.743 2.826 3.765 1.038-.872 1.458-1.332 2.227-2.41q-.725-.657-1.457-1.306c1.165-.911 1.993-1.685 2.895-2.85l1.795 1.685c-.963.686-2.027 1.696-2.923 2.5.745.797 1.521 1.59 2.278 2.378-1.324 1.09-2.36 2.074-3.594 3.255.75.579 1.356 1.274 2.247 1.954a210 210 0 0 0-3.621 3.683c-.599-.791-1.29-1.902-1.854-2.75l-1.047-1.292c-.696.545-1.297.979-2.023 1.483 1.14 1.38 1.87 2.83 3.197 4.239-1.023.88-2.404 2.35-3.265 3.394l-1.112-3.068c.703-.49 1.281-1.073 1.9-1.662-.563-.51-1.03-.971-1.673-1.377-.42-.045-.656.045-1.062.145-1.249-.96 2.115-4.92 3.117-5.106.666.186 1.036.568 1.582 1.006.1-.902.118-1.858.154-2.769l-1.608-1.523c-.6.521-1.278.917-1.95 1.343-2.813-1.68-2.112.703-2.958 1.07-.161-.475-.412-1.244.104-1.575 1.806-1.16 3.309-2.578 4.966-3.929-1.558-1.512-6.387-6.035-7.23-7.557-.015-1.096-.092-2.162-.164-3.255.674-.54 1.234-1.147 1.839-1.764.68.93 1.106 1.369 1.923 2.198.704-.737 1.175-1.131 1.965-1.783-.737-.788-1.418-1.572-2.278-2.224.938-.77 1.971-1.785 2.871-2.628m21.987-19.504c.472.574.941 1.3 1.634 1.404 1.095.165 1.504 1.08 2.152 2.02l.38-.036.472.275.01.17c.706 1.124 1.173 1.2 1.685 2.628-.621.453-1.246.93-1.864 1.392-.183-.203-2.016-2.24-1.96-2.196-.319.107-1.186 1.474-1.534 1.914-2.15-2.123-2.559-.898-3.919-1.434.22-.484.976-1.04 1.413-1.414-.584-.903-.8-1.133-1.549-1.908.97-.815 2.31-1.856 3.08-2.815" />
    <path fill="#fefefe"
        d="m85.693 133.282.38-.037.472.275.01.17c-.61.256-.61.833-.848 1.442-.385.275-.186.247-.59.195l-.083-.235c.175-.709.236-1.22.659-1.81" />
    <path
        d="M76.433 138.265c.473.671 1.111 1.426 1.635 2.078.94-.889 1.258-1.27 2.437-1.88l.144.127c-.453.845-1.694 1.643-2.5 2.31-.834.707-1.416 1.215-2.172 1.998-.616-.862-1.4-1.733-2.12-2.51.877-.569 1.78-1.419 2.576-2.123m-4.726 29.408c.473.406 1.15 1.22 1.846 1.826-.772.714-1.692 1.582-2.359 2.383-.158-.08-1.486-1.592-1.76-1.877.779-.74 1.612-1.49 2.273-2.332m4.944-33.261c.568.141 1.353 1.27 1.874 1.856.054-.1-1.69 1.455-1.85 1.61l-.084.115c-.193-.005-1.47-1.56-1.791-1.894zm-22.431 28.71c.955.712 1.878 1.834 3.105 2.723l-1.026.803c-.406.337-.88.836-1.26 1.216-.18-1.371-.587-3.295-.82-4.742m31.854-29.877-.04-.142c-.468-1.669-1-1.261.17-2.899.662.961 1.044 1.423 1.826 2.297-.614.552-.75.636-1.484 1.02z" />
    <path fill="#fefefe"
        d="M63.753 98.362c1.252 1.11 4.959 5.658 6.208 7.124l13.793 16.217c-2.959 2.35-6.477 5.618-9.34 8.16l-14.422 12.713c-3.565 3.136-7.21 6.195-10.755 9.333-.041-15.223 2.58-29.371 8.973-43.266 1.633-3.55 3.347-7.032 5.543-10.281" />
    <path
        d="M69.281 110.712c.284.199 1.79 2.102 2.145 2.487 2.28 2.47 4.91 6.179 7.25 8.477-1.106.795-3.047 2.552-4.127 3.488-2.062 1.788-4.381 3.706-6.35 5.567-.193-.151-1.57-1.778-1.844-2.069-2.432-2.595-5.173-6.621-7.654-8.97 1.4-1.062 3.306-2.804 4.728-3.987 1.856-1.544 4.142-3.368 5.852-4.993" />
    <path fill="#fefefe"
        d="M69.274 113.354c1.93 1.929 4.48 5.649 6.615 7.903-2.366 2.21-5.146 4.5-7.622 6.624l-6.69-7.921c2.29-2.134 5.273-4.505 7.697-6.606" />
    <path
        d="M68.881 116.554c.559.274 3.183 3.625 4.011 4.447l-4.258 3.608c-.516-.052-3.319-3.627-4.018-4.38 1.137-.734 3.403-2.651 4.266-3.675m-11.085 17.149c1.033 1.197 2.15 2.55 3.248 3.669-2.109 1.663-5.148 4.39-7.134 6.221l-.124.058c-.18-.266.012-2.537.038-3.054.58-.599 1.289-1.144 1.938-1.676-.445-.508-1.08-1.42-1.503-1.993.268-1.265.481-1.971.45-3.27q.677.842 1.37 1.672a20 20 0 0 0 1.717-1.627m5.239-4.552c.637.349 2.529 2.794 3.274 3.568-1.178.826-2.426 1.933-3.431 2.963-.7-.875-2.063-2.247-2.866-3.11-.301-.277-.135-.18-.528-.251-.658.255-1.103.79-1.62 1.295-.474-.62-1.067-1.168-1.625-1.72.603-.617 1.213-1.097 1.876-1.643.573.878.787 1.11 1.514 1.866 1.255-1 2.26-1.853 3.406-2.968m1.568-24.041c1.043 1.12 1.902 2.45 3.023 3.629l-.091.06c-1.147.742-2.222 1.681-3.28 2.555-.27.267-.37.42-.725.542-.405-.124-1.017-.961-1.463-1.392a252 252 0 0 0 2.536-5.393m-7.146 17.674c.61.2 3.368 3.558 4.085 4.308-.501.495-.901.967-1.522 1.285-.533-.01-.33.048-.81-.44-.374-.37-.74-.847-1.08-1.258a54 54 0 0 0-2.35 1.996c.559-1.537 1.218-4.232 1.677-5.89" />
    <path fill="#fefefe"
        d="m236.83 98.536.237.082c1.068 1.173 3.137 5.429 3.917 6.986a97.3 97.3 0 0 1 10.37 46.155c-3.583-2.899-7.24-6.189-10.73-9.234-6.453-5.796-13.143-11.365-19.553-17.215-1.273-1.162-2.795-2.595-4.154-3.608 6.749-7.452 13.024-15.904 19.913-23.166" />
    <path
        d="M231.363 110.678c3.157 2.833 7.278 6.342 10.552 9.03-1.543 1.62-3.021 3.507-4.477 5.225-1.635 1.929-3.341 3.844-4.947 5.787.02.011-2.431-2.103-2.55-2.204l-7.953-6.886c.938-.878 2.474-2.762 3.384-3.825a359 359 0 0 0 5.991-7.127" />
    <path fill="#fefefe"
        d="M231.407 113.326q3.804 3.37 7.721 6.61c-1.883 1.952-4.856 5.708-6.67 7.877-.813-.415-6.748-5.638-7.68-6.499 1.344-1.83 5.13-6.37 6.63-7.988" />
    <path
        d="M231.612 116.542c.569.245 3.424 3.023 4.357 3.682-1.198 1.335-2.706 3.036-3.727 4.5-1.368-.932-3.026-2.601-4.555-3.712 1.316-1.203 2.789-3.066 3.925-4.47m12.933 18.715c.542-.55 1.016-1.242 1.48-1.868l.346 3.7-1.622 1.721c.735.632 1.252 1.076 2.054 1.625q.124 1.736.344 3.462c-.412-.243-1.922-1.663-2.379-2.061-1.712-1.494-3.378-3.055-5.17-4.46.926-.944 2.305-2.634 3.209-3.685.703.762.879.955 1.738 1.566m-7.158-6.278c.488.298 1.617 1.45 2.021 1.89 1.516 1.647 2.066.773 3.135-.597.565.437 1.201 1.033 1.745 1.515-.54.569-.986 1.141-1.477 1.752-.513-.442-1.292-1.204-1.947-1.265a46 46 0 0 0-3.064 3.427c-1.074-1.07-2.231-2.09-3.48-2.953.968-1.238 2.07-2.533 3.067-3.77m-1.213-23.853c.693 1.192 1.851 3.96 2.585 5.394-.761.612-.927 1.248-1.82 1.308l-.453-.428c-1.102-.899-2.215-1.834-3.358-2.676a138 138 0 0 0 3.046-3.599m6.796 17.566c.7.493 1.67 4.949 1.962 6.022-.74-.759-1.337-1.528-2.303-1.911-.549.066-.284-.036-.748.486-.322.346-.727.935-1.017 1.328-.666-.637-1.11-.93-1.864-1.458 1.457-1.575 2.371-2.931 3.97-4.468" />
    <path fill="#fefefe"
        d="M268.07 89.786c.546.316 3.228 6.28 3.71 7.3-2.281.927-4.812 2.226-7.11 3.27l-.3-.059c-1.15-1.769-2.254-5.103-3.46-7.055zm-236.235-.091c2.47 1.14 4.867 2.372 7.323 3.535a96 96 0 0 0-3.485 7.268c-1.895-.71-5.364-2.57-7.365-3.522 1.19-2.336 2.375-4.904 3.527-7.28m181.303 167.679c.493.355 3.338 5.956 3.95 6.987-2.238 1.331-4.656 2.617-6.952 3.848-.548-.107-3.455-6.17-3.92-7.091zM274.7 105.044c.018.004.04.001.056.012.57.366 2.338 6.6 2.763 7.723-1.936.5-5.534 1.771-7.457 2.456-.433-.265-2.394-6.533-2.804-7.587 2.433-.866 5.067-1.682 7.443-2.604m-15.097-29.579c.851.577 3.725 5.534 4.541 6.741-2.106 1.217-4.496 2.841-6.565 4.176l-.169.052c-.445-.293-3.747-5.704-4.468-6.667a114 114 0 0 1 6.661-4.302M89.6 31.93l.354.087c1.145 1.842 2.645 5.129 3.725 6.85-2.303 1.238-4.616 2.543-6.908 3.81-.54-.304-3.509-6.044-4.061-7.014 1.9-.89 4.857-2.681 6.89-3.733M62.37 50.498c.678.538 4.48 4.827 5.463 5.864-1.88 1.757-4.06 3.672-5.819 5.512-.703-.407-4.866-5.069-5.6-5.88 1.36-1.054 4.544-4.203 5.956-5.496m147.864-18.781c1.228.854 5.612 3.167 7.058 3.944-1.15 2.301-2.583 4.778-3.845 7.033-.492-.126-6.02-3.265-7.064-3.805 1.237-2.083 2.643-4.955 3.851-7.172M62.033 238.138c1.052.667 4.85 4.506 5.964 5.515-1.76 1.922-3.63 3.966-5.325 5.936-2.088-1.888-3.985-3.6-5.97-5.599 1.782-1.838 3.468-3.934 5.33-5.852M237.61 50.53c1.278.905 4.573 4.184 6 5.47-1.769 1.907-3.806 3.96-5.456 5.916-1.424-1.08-4.43-4.187-5.98-5.568 1.64-1.58 3.827-4.084 5.435-5.818m11.711 11.699c.903.61 4.392 5.123 5.372 6.252-2.008 1.631-4.211 3.344-6.102 5.08-.642-.561-4.54-5.273-5.316-6.186 1.47-1.015 4.583-3.872 6.047-5.146M17.753 137.518c2.453.297 5.387.454 7.886.633.03 2.392-.32 5.594-.537 8.03-2.384-.259-5.503-.352-7.949-.497q.13-4.096.6-8.166m7.423-32.585c1.948.863 5.36 1.858 7.553 2.703-.959 2.508-1.68 5.11-2.64 7.656-1.987-.825-5.407-1.846-7.52-2.558q1.26-3.915 2.607-7.8m15.157-29.541q3.412 2.115 6.745 4.351a178 178 0 0 0-4.354 6.818c-2.182-1.306-4.663-3.011-6.824-4.416zm138.502-54.808c2.114.227 5.888 1.336 7.999 1.952-.76 2.5-1.41 5.169-2.067 7.708-.809-.003-6.128-1.673-7.738-1.915.577-2.586 1.237-5.15 1.806-7.745m103.278 116.901c.445.513.703 7.225.742 8.226-2.494.054-5.19.295-7.753.381-.4-.558-.696-6.94-.72-8.03a89 89 0 0 0 7.73-.577M86.811 257.36c2.345 1.208 4.822 2.508 7.072 3.867a317 317 0 0 0-3.73 7.093c-2.27-1.382-4.68-2.473-7.103-3.986 1.299-2.268 2.533-4.661 3.761-6.974M24.204 153.873l.697-.022c.525.52.734 6.825.75 7.986-2.166.078-4.482.311-6.642.503-.507.086-.52.097-1.063.056-.543-.772-.706-6.797-.74-8.138zm213.791 84.268c1.826 1.884 3.606 3.963 5.424 5.898-1.866 1.759-4.033 3.805-5.981 5.428-1.017-.776-4.242-4.621-5.372-5.814 1.97-1.845 3.983-3.638 5.929-5.512m19.211-24.74c2.126 1.44 4.64 3.018 6.835 4.358-1.512 2.222-2.742 4.502-4.39 6.731-.689-.218-5.966-3.798-6.794-4.353 1.099-1.327 3.494-5.218 4.349-6.736M50.607 62.193c2.024 1.598 4.17 3.537 6.127 5.247-1.083 1.079-4.24 4.9-5.194 6.15l-6.208-5.144c1.47-1.516 3.817-4.538 5.275-6.253m228.487 58.996c.473-.122.278-.171.628.027.47 2.145 1.264 5.776 1.433 7.863-2.243.296-5.071.94-7.31 1.4l-.334.01c-.47-.522-1.434-6.699-1.604-7.723 2.155-.623 4.97-1.162 7.187-1.577M269.9 184.64c1.959.81 5.412 1.83 7.543 2.576a342 342 0 0 0-2.498 7.728c-2.263-.883-5.374-1.841-7.725-2.611.86-1.86 2.015-5.645 2.68-7.692M105.004 25.21c.614.75 2.443 6.19 3.037 7.553-2.125.726-5.306 1.953-7.357 2.881-.512-.637-2.596-6.373-3.075-7.531zm15.353-4.538c.41-.054.388-.067.781.043.357.643 1.591 6.446 1.85 7.597-2.349.525-4.886 1.232-7.23 1.838-.277.12-.129.102-.449.032-.375-.87-1.707-6.344-2.05-7.601 2.265-.74 4.772-1.321 7.098-1.909M75.363 40.415c.727.138 3.857 5.305 4.868 6.41-1.81 1.169-4.712 3.3-6.397 4.61-.539-.176-4.161-5.398-4.847-6.348 2.068-1.636 4.223-3.15 6.376-4.672M29.934 184.737l.085.012c.343.31 2.403 6.626 2.76 7.598-2.491.82-4.886 1.563-7.36 2.463l-.117-.01c-.497-.46-2.32-6.453-2.697-7.539 1.775-.792 5.371-1.87 7.33-2.524m-3.762-15.219.321-.025c.425.422 1.477 6.726 1.673 7.777l-7.333 1.612-.237.059c-.523-.434-1.585-7.036-1.757-8.08 2.213-.248 5.093-.895 7.333-1.343m16.497 44.053c.414.138 3.82 5.734 4.445 6.579-1.944 1.468-4.488 3.101-6.566 4.397-.712-.53-3.832-5.693-4.508-6.779 1.371-.67 5.142-3.234 6.629-4.197m-7.27-13.904c.043.003.296.01.353.124.787 1.612 2.628 5.577 3.384 6.872-2.269 1.217-4.69 2.372-7.007 3.514l-.109-.007c-.566-.32-3.13-6.198-3.582-7.191 2.222-1.137 4.689-2.247 6.962-3.312m-15.084-78.674c.643.225 7.028 1.563 7.83 1.684-.45 2.628-.982 5.269-1.45 7.9-2.061-.53-5.744-1.16-7.86-1.501.367-2.656 1.066-5.383 1.48-8.083M162.545 17.758c2.547.452 5.376.733 7.973 1.077-.404 2.226-.727 5.673-1.044 8.01-2.567-.37-5.435-.617-7.935-1.096.351-1.269.76-6.206 1.006-7.991M226.06 248.56c.371.147 4.187 5.637 4.779 6.41-1.803 1.39-4.491 3.36-6.372 4.575l-.2.017c-.684-.501-3.872-5.37-4.576-6.414a190 190 0 0 0 6.368-4.587M51.567 226.584c.43.16 4.547 5.242 5.28 6.02-1.976 1.588-4.076 3.497-5.993 5.183-.67-.4-4.482-5.21-5.276-6.192 1.284-1.272 4.518-3.837 5.989-5.011m212.707-27.037c2.541.993 4.857 2.254 7.353 3.354a200 200 0 0 1-3.468 7.245c-.604-.023-6.346-3.008-7.254-3.48.842-1.392 2.856-5.602 3.369-7.12M224.46 40.361c.968.375 5.541 3.936 6.527 4.729-1.108 1.806-3.336 4.645-4.633 6.402-1.521-.902-4.922-3.573-6.452-4.712 1.39-1.754 3.142-4.496 4.557-6.419m48.904 129.053c1.924.419 6.01 1.281 7.786 1.43-.318 2.582-.996 5.476-1.477 8.091-2.31-.457-5.591-1.324-7.772-1.623.369-2.57.992-5.31 1.463-7.898m-74.185 94.982c.38.413 2.592 6.458 3.01 7.519-2.222.96-5.071 2.085-7.327 2.891-.617-.46-2.584-6.344-2.96-7.405 1.993-.776 5.42-2.027 7.277-3.005m75.779-110.56c2.624.17 5.265.266 7.894.422-.035 2.704-.363 5.514-.652 8.208-1.43-.339-6.139-.532-7.834-.637.049-2.577.405-5.38.592-7.993M137.01 17.936l.352-.005c.407.659.832 6.502 1.131 7.93q-3.686.4-7.355.936l-.448-.037c-.442-.655-1.011-6.62-1.112-7.826 2.012-.44 5.354-.753 7.431-.998m57.915 7.249q3.773 1.398 7.482 2.958c-1.009 2.436-1.974 5.085-2.947 7.56-2.128-1.013-5.114-2.113-7.383-3.056zm53.402 201.27c1.566 1.132 4.72 3.805 6.166 5.094-1.303 1.768-3.743 4.552-5.206 6.205-1.978-1.71-4.05-3.565-6.085-5.185 1.504-1.645 3.858-4.354 5.125-6.114m-79.185 46.801.226-.011c.296.492.914 6.808 1.04 7.93-2.488.391-5.01.604-7.516.995l-.289-.087c-.349-.65-.854-6.445-1.088-7.798 1.89-.406 5.566-.752 7.627-1.029m-95.173-24.679q3.171 2.333 6.368 4.632c-1.315 1.943-3.092 4.694-4.555 6.465-2.263-1.478-4.338-3.073-6.533-4.642 1.45-2.144 3.153-4.394 4.72-6.455m26.782 15.839a462 462 0 0 0 7.515 3.06c-1.043 2.244-1.9 5.023-2.916 7.381-2.516-.994-4.941-1.923-7.46-2.96a125 125 0 0 0 2.86-7.481m83.607 5.44.245.063c.772 1.96 1.216 5.245 2.058 7.51-2.253.75-4.88 1.39-7.188 1.939-.603.076-.373.162-.81-.068-.649-2.272-1.19-5.264-1.679-7.623 1.761-.222 5.5-1.314 7.374-1.82m-53.777 3.336c2.653.4 5.3.64 7.96 1.042-.423 2.638-.533 5.25-1.004 7.863-.683.098-6.762-.766-7.81-.914.106-2.392.65-5.464.854-7.99m-15.144-3.437c1.876.637 5.773 1.59 7.698 2.023-.64 2.453-1.213 5.213-1.788 7.705a141 141 0 0 1-7.858-1.994q1.026-3.854 1.948-7.734M146.05 17.268c2.68-.007 5.245-.027 7.934.016l-.036 7.916-7.876.04zm.028 257.532 7.881.013-.008 7.906-7.886-.004z" />
</svg>